<svg width="615" height="131" viewBox="0 0 615 131" fill="none" xmlns="http://www.w3.org/2000/svg">
<path d="M580.459 54.8277C474.601 87.7363 364.753 106.867 254.332 115.242C199.105 119.468 143.684 121.333 88.3125 120.669C33.0218 120.097 -22.705 117.539 -77.9726 111.08C-133.267 104.905 -188.157 95.3989 -242.47 83.6683C-296.789 72.1721 -350.603 56.7331 -403.233 42.3105C-456.371 27.681 -510.272 12.3842 -562.949 -9.94064C-576.086 -15.6567 -589.166 -21.5867 -602.007 -28.3971C-614.673 -34.6916 -628.884 -43.6615 -641.234 -53.6502C-653.694 -64.0983 -665.185 -76.789 -674.124 -92.2022C-683.09 -107.478 -688.634 -126.603 -687.803 -146.001C-687.17 -165.421 -680.193 -183.941 -670.401 -198.912C-660.728 -214.317 -648.014 -225.488 -635.22 -235.619C-609.079 -254.618 -582.798 -267.039 -554.378 -277.373C-498.006 -297.253 -438.234 -303.654 -379.729 -299.785C-351.074 -297.872 -321.909 -294.447 -292.346 -286.829C-277.577 -283.026 -262.671 -278.247 -247.799 -271.201C-233.022 -264.282 -218.021 -255.583 -204.6 -242.697C-191.248 -230.077 -179.458 -213.53 -173.089 -194.691C-165.826 -174.124 -166.888 -151.53 -172.084 -133.32C-177.287 -114.728 -185.919 -99.0467 -196.062 -85.1075C-206.484 -71.1343 -217.245 -60.1149 -229.195 -49.2248C-277.415 -6.81413 -334.144 15.1134 -386.881 33.8987L-426.24 47.3846C-439.002 51.7495 -454.297 56.5327 -467.543 60.1963C-494.906 67.8497 -521.806 74.6545 -548.649 81.2455L-708.601 120.324C-734.997 126.979 -761.323 133.751 -787.042 141.068C-812.536 148.268 -838.873 156.162 -859.615 164.976L-860.435 165.323C-883.362 175.083 -909.827 164.343 -919.563 141.344C-929.298 118.346 -918.597 91.8023 -895.67 82.0427C-895.313 81.8919 -894.743 81.6505 -894.361 81.5101C-864.088 69.7394 -837.346 62.9592 -809.818 55.8471C-782.49 48.8613 -755.395 42.6695 -728.352 36.6047L-567.015 1.76584C-540.319 -4.02564 -513.81 -10.012 -488.05 -16.4819C-474.73 -19.8188 -463.688 -22.9296 -450.333 -27.0819L-411.352 -39.2701C-360.606 -55.5487 -312.328 -74.1972 -276.702 -104.202C-258.863 -119.269 -244.345 -136.638 -239.603 -152.929C-237.148 -161.025 -236.98 -167.27 -238.702 -172.862C-240.998 -180.319 -245.342 -186.951 -251.638 -193.433C-264.343 -206.411 -286.131 -216.517 -309.474 -223.078C-332.993 -229.86 -358.547 -233.738 -384.613 -236.135C-435.539 -240.912 -487.356 -236.569 -535.23 -221.105C-547.201 -217.306 -558.74 -212.531 -570.063 -207.342C-581.244 -202.066 -592.355 -195.723 -601.447 -189.476C-620.011 -176.484 -632.025 -159.752 -632.97 -143.571C-634.734 -127.339 -623.896 -108.81 -607.161 -93.8912C-590.617 -79.524 -566.304 -67.4101 -542.566 -56.212C-494.496 -34.256 -442.812 -17.9375 -390.434 -2.01754C-337.492 14.0434 -285.97 30.3253 -233.056 43.0265C-180.31 55.9255 -126.997 66.6255 -73.235 74.1011C-19.5146 81.8263 34.5778 85.7913 89.1588 87.822C143.623 89.9233 198.177 89.5425 252.601 86.8566C361.43 81.5356 469.968 65.6345 574.944 36.0701C580.132 34.5713 585.533 37.5754 587.028 42.7792C588.504 47.8859 585.566 53.2367 580.546 54.8333" fill="#46B8B0"/>
<path d="M557.775 21.4181C557.901 20.8173 558.001 20.2061 558.126 19.6053C558.301 19.3208 558.338 19.0101 558.462 18.7049C559.452 16.1159 561.09 14.117 563.527 12.7702C564.669 12.1397 565.936 11.8566 567.153 11.405C567.953 11.1089 568.818 11.0172 569.662 10.9763C569.992 10.963 570.342 11.0466 570.668 10.9721C571.14 11.0462 571.628 11.1562 572.1 11.2303C572.292 11.3385 572.505 11.3959 572.708 11.4786C574.001 12.0063 575.305 12.5085 576.608 13.0107C578.028 13.5901 579.448 14.1695 580.878 14.7234C582.526 15.3959 584.195 16.0175 585.868 16.7004C586.933 17.1349 587.998 17.5694 589.099 17.9889C590.747 18.6614 592.415 19.283 594.089 19.9659C595.509 20.5452 596.928 21.1246 598.359 21.6786C600.007 22.351 601.675 22.9727 603.334 23.6197C604.196 23.9715 605.058 24.3233 605.93 24.6496C606.716 24.9703 607.446 25.357 608.124 25.8708C608.726 26.3536 609.272 26.9023 609.751 27.5424C610.407 28.4027 610.885 29.3385 611.235 30.3703C611.704 31.8363 611.833 33.3409 611.656 34.8693C611.534 35.827 611.3 36.7687 610.939 37.6588C609.981 40.0237 609.022 42.3886 608.063 44.7535C606.094 49.6104 604.125 54.4674 602.131 59.314C600.203 64.0693 598.25 68.8142 596.312 73.5948C595.281 76.1377 593.643 78.1367 591.201 79.4222C589.738 80.1885 588.18 80.6789 586.562 81.0262C585.269 81.2989 584.009 81.1997 582.72 80.8811C580.31 80.1939 578.478 78.7352 577.312 76.5107C575.758 73.565 575.719 70.5264 576.956 67.4749C577.946 65.0337 579.128 62.7007 580.259 60.347C581.73 57.302 583.15 54.2363 583.977 50.9581C584.554 48.7336 584.806 46.4359 584.615 44.1356C584.449 42.1413 583.63 40.4439 582.092 39.1348C581.384 38.5494 580.619 38.03 579.824 37.5869C577.23 36.1135 574.44 35.1233 571.655 34.1943C569.235 33.3847 566.784 32.6513 564.395 31.7654C563.208 31.3404 562.063 30.8136 561.087 29.9412C558.831 27.9243 557.824 25.3796 557.826 22.387C557.827 22.0914 557.9 21.7655 557.851 21.4492" fill="#46B8B0"/>
</svg>
