<svg width="119" height="88" viewBox="0 0 119 88" fill="none" xmlns="http://www.w3.org/2000/svg">
<path d="M117.998 3.13626C117.853 3.94446 117.079 4.48531 116.272 4.33919C115.878 4.26799 76.4314 -2.43258 44.8925 19.6485C26.1867 32.7453 13.9507 53.2665 8.44966 80.6465L12.3892 76.6563C12.9668 76.0737 13.9062 76.0653 14.4934 76.6434C15.0786 77.219 15.0847 78.1618 14.5075 78.7459L5.54555 87.822L0.163172 76.1026C-0.180407 75.3578 0.147375 74.4741 0.893976 74.1317C0.999342 74.0828 1.10769 74.0485 1.21842 74.0259C1.87988 73.8906 2.57165 74.2227 2.86636 74.8622L5.45229 80.493C11.0654 52.1247 23.7341 30.8319 43.1875 17.2119C54.4365 9.3362 66.6513 5.01066 77.8422 2.72206C99.0235 -1.60961 116.529 1.36471 116.795 1.41197C117.602 1.55518 118.14 2.32689 117.998 3.13626Z" fill="#46B8B0"/>
</svg>
