<svg width="291" height="74" viewBox="0 0 291 74" fill="none" xmlns="http://www.w3.org/2000/svg">
<rect x="1.5" y="1.5" width="287.058" height="70.7865" rx="8.44192" fill="white"/>
<path d="M221.682 16.0869C222.002 16.0869 222.275 16.1987 222.498 16.4222C222.722 16.6458 222.833 16.913 222.833 17.224C222.833 17.535 222.722 17.8023 222.498 18.0258C222.275 18.2493 222.002 18.3611 221.682 18.3611C221.371 18.3611 221.103 18.2493 220.88 18.0258C220.656 17.8023 220.545 17.535 220.545 17.224C220.545 16.9033 220.656 16.636 220.88 16.4222C221.103 16.1987 221.371 16.0869 221.682 16.0869ZM224.291 16.0869C224.612 16.0869 224.884 16.1987 225.108 16.4222C225.331 16.6458 225.443 16.913 225.443 17.224C225.443 17.535 225.331 17.8023 225.108 18.0258C224.884 18.2493 224.612 18.3611 224.291 18.3611C223.98 18.3611 223.713 18.2493 223.489 18.0258C223.276 17.8023 223.169 17.535 223.169 17.224C223.169 16.9033 223.276 16.636 223.489 16.4222C223.713 16.1987 223.98 16.0869 224.291 16.0869ZM225.443 18.9005V23.9153C225.443 23.9737 225.462 24.0222 225.501 24.0611C225.54 24.1 225.598 24.1194 225.676 24.1194H226.172V26H225.02C224.524 26 224.073 25.8056 223.664 25.4169C223.188 25.8931 222.615 26.1312 221.944 26.1312H221.9C220.929 26.1312 220.166 25.7279 219.612 24.9212C219.165 24.2895 218.941 23.5363 218.941 22.6616C218.941 21.5926 219.281 20.7082 219.962 20.0084C220.574 19.3767 221.337 19.0609 222.25 19.0609C222.746 19.0609 223.237 19.1629 223.723 19.367L224.32 18.9005H225.443ZM223.183 21.1018C222.95 21.0435 222.731 21.0143 222.527 21.0143C222.1 21.0143 221.764 21.1601 221.521 21.4517C221.278 21.7432 221.157 22.1465 221.157 22.6616C221.157 23.1476 221.288 23.546 221.551 23.857C221.823 24.168 222.173 24.3235 222.6 24.3235C222.765 24.3235 222.96 24.2992 223.183 24.2506V21.1018ZM230.937 19.2941V24.1923C230.937 24.6199 230.796 25.0038 230.514 25.344C230.145 25.7813 229.678 26 229.114 26H226.068V24.1194H228.473C228.531 24.1194 228.58 24.1049 228.619 24.0757C228.667 24.0368 228.692 23.9834 228.692 23.9153V19.2941H230.937ZM229.523 26.6706C229.834 26.6706 230.101 26.7824 230.324 27.0059C230.548 27.2294 230.66 27.5015 230.66 27.8223C230.66 28.1333 230.548 28.4005 230.324 28.624C230.101 28.8476 229.834 28.9593 229.523 28.9593C229.202 28.9593 228.93 28.8476 228.706 28.624C228.492 28.4005 228.385 28.1333 228.385 27.8223C228.385 27.5015 228.492 27.2294 228.706 27.0059C228.93 26.7824 229.202 26.6706 229.523 26.6706ZM237.255 19.2941V24.1194H237.984V26H237.226C237.119 27.1176 236.633 28.002 235.768 28.6532C235.039 29.1877 234.184 29.455 233.202 29.455C233.095 29.455 232.925 29.4501 232.692 29.4404L231.774 28.2888V27.5161C231.803 27.5258 231.856 27.5356 231.934 27.5453C232.187 27.5939 232.41 27.6182 232.605 27.6182C233.411 27.5987 234.009 27.3946 234.398 27.0059C234.796 26.6074 234.995 26 234.995 25.1836V19.2941H237.255ZM239.91 22.0202C240.27 20.9511 240.901 20.1736 241.805 19.6877C242.447 19.3281 243.19 19.1483 244.036 19.1483C244.833 19.1483 245.552 19.3621 246.193 19.7898C246.971 20.2854 247.53 21.0289 247.87 22.0202L247.695 22.4721C247.471 22.5985 247.175 22.8366 246.805 23.1864C246.456 23.5363 246.198 23.8473 246.033 24.1194H248.015V26H244.59C244.356 26 244.133 25.8834 243.919 25.6501H243.861C243.647 25.8834 243.409 26 243.146 26H237.884V24.1194H241.747C241.591 23.8473 241.339 23.546 240.989 23.2156C240.61 22.8366 240.309 22.5887 240.085 22.4721L239.91 22.0202ZM245.552 21.9327C245.406 21.5829 245.134 21.3302 244.735 21.1747C244.492 21.0775 244.225 21.0289 243.934 21.0289C243.555 21.0289 243.214 21.0969 242.913 21.233C242.573 21.3885 242.345 21.6217 242.228 21.9327C242.422 22.0494 242.699 22.3166 243.059 22.7345C243.467 23.201 243.73 23.58 243.846 23.8716H243.934C244.07 23.5315 244.356 23.1281 244.794 22.6616C245.114 22.2923 245.367 22.0494 245.552 21.9327ZM252.789 15.5621V24.1923C252.789 24.6199 252.653 25.0038 252.381 25.344C252.012 25.7813 251.541 26 250.967 26H247.92V24.1194H250.326C250.384 24.1194 250.433 24.1049 250.472 24.0757C250.52 24.0368 250.544 23.9834 250.544 23.9153V15.5621H252.789ZM257.052 15.5621V25.446L255.915 26.3645H254.807V15.5621H257.052Z" fill="#0F1933"/>
<path d="M163.645 29.7753C162.702 28.8715 161.968 27.7052 161.443 26.2766C160.919 24.848 160.656 23.3075 160.656 21.6554C160.656 19.9837 160.928 18.4239 161.473 16.9758C162.017 15.518 162.79 14.3323 163.791 13.4188H166.24V13.652C165.219 14.6628 164.432 15.8776 163.878 17.2965C163.324 18.7057 163.047 20.1587 163.047 21.6554C163.047 23.1423 163.314 24.5758 163.849 25.9559C164.383 27.3359 165.137 28.5313 166.108 29.5421V29.7753H163.645ZM169.047 20.2704C169.999 19.9886 170.782 19.8477 171.394 19.8477C172.56 19.8477 173.503 20.217 174.222 20.9556C174.863 21.6165 175.184 22.4523 175.184 23.463V24.7459C175.184 24.9694 175.179 25.1347 175.17 25.2416H175.651V26.7285H175.359L174.878 26.1308H174.834C174.514 26.5293 174.105 26.7285 173.61 26.7285H170.957C170.14 26.7285 169.562 26.9763 169.222 27.472C169.018 27.7733 168.916 28.1572 168.916 28.6237C168.916 30.0329 169.824 30.7375 171.642 30.7375C172.04 30.7375 172.502 30.6889 173.027 30.5917V31.204L172.298 32.1224C171.996 32.1904 171.656 32.2293 171.277 32.239C170.247 32.239 169.377 32.0058 168.668 31.5393C167.647 30.9076 167.137 29.9162 167.137 28.5653C167.137 27.5546 167.463 26.7577 168.114 26.1746C168.804 25.5526 169.815 25.2416 171.146 25.2416H173.041C173.284 25.2416 173.406 25.1201 173.406 24.8771V23.5651C173.406 22.8945 173.187 22.3648 172.75 21.9761C172.322 21.5776 171.739 21.3784 171 21.3784C170.524 21.3784 169.873 21.4804 169.047 21.6845V20.2704ZM171.671 27.7927C171.933 27.7927 172.157 27.885 172.341 28.0697C172.526 28.2543 172.618 28.4779 172.618 28.7403C172.618 29.0027 172.526 29.2262 172.341 29.4109C172.157 29.5955 171.933 29.6879 171.671 29.6879C171.408 29.6879 171.185 29.5955 171 29.4109C170.825 29.2262 170.738 29.0027 170.738 28.7403C170.738 28.4779 170.825 28.2543 171 28.0697C171.185 27.885 171.408 27.7927 171.671 27.7927ZM176.959 16.8155C177.222 16.8155 177.445 16.9078 177.63 17.0924C177.815 17.2771 177.907 17.5006 177.907 17.763C177.907 18.0157 177.815 18.2344 177.63 18.419C177.445 18.6037 177.222 18.696 176.959 18.696C176.697 18.696 176.473 18.6037 176.289 18.419C176.104 18.2344 176.012 18.0157 176.012 17.763C176.012 17.5006 176.104 17.2771 176.289 17.0924C176.473 16.9078 176.697 16.8155 176.959 16.8155ZM179.175 16.8155C179.438 16.8155 179.661 16.9078 179.846 17.0924C180.03 17.2771 180.123 17.5006 180.123 17.763C180.123 18.0157 180.03 18.2344 179.846 18.419C179.661 18.6037 179.438 18.696 179.175 18.696C178.922 18.696 178.704 18.6037 178.519 18.419C178.334 18.2344 178.242 18.0157 178.242 17.763C178.242 17.5006 178.334 17.2771 178.519 17.0924C178.704 16.9078 178.922 16.8155 179.175 16.8155ZM179.933 20.0226V25.2416H180.677V26.7285H180.166L179.627 26.1308H179.598C179.267 26.5293 178.854 26.7285 178.359 26.7285H175.545V25.2416H177.746C177.883 25.2416 177.98 25.2027 178.038 25.1249C178.126 25.0472 178.169 24.95 178.169 24.8334V20.0226H179.933ZM184.069 16.8155C184.332 16.8155 184.555 16.9078 184.74 17.0924C184.925 17.2771 185.017 17.5006 185.017 17.763C185.017 18.0157 184.925 18.2344 184.74 18.419C184.555 18.6037 184.332 18.696 184.069 18.696C183.817 18.696 183.598 18.6037 183.413 18.419C183.229 18.2344 183.136 18.0157 183.136 17.763C183.136 17.5006 183.229 17.2771 183.413 17.0924C183.598 16.9078 183.817 16.8155 184.069 16.8155ZM184.959 20.0226V25.2416H185.702V26.7285H185.192L184.652 26.1308H184.623C184.293 26.5293 183.88 26.7285 183.384 26.7285H180.571V25.2416H182.772C182.908 25.2416 183.005 25.2027 183.063 25.1249C183.151 25.0472 183.195 24.95 183.195 24.8334V20.0226H184.959ZM188.206 22.5446C188.206 21.6213 188.526 20.9216 189.168 20.4454C189.673 20.0566 190.363 19.8623 191.238 19.8623C192.093 19.8623 192.817 20.115 193.41 20.6203C194.158 21.2618 194.532 22.1705 194.532 23.3464C194.532 24.4543 194.236 25.3728 193.643 26.1017C193.07 26.8111 192.326 27.1659 191.413 27.1659C190.606 27.1659 189.969 26.8646 189.503 26.262C189.192 26.573 188.813 26.7285 188.366 26.7285H185.582V25.2416H187.827C187.933 25.2416 188.026 25.2027 188.104 25.1249C188.172 25.0569 188.206 24.9743 188.206 24.8771V22.5446ZM189.969 25.0812C190.329 25.4699 190.742 25.6643 191.209 25.6643C191.665 25.6643 192.04 25.4651 192.331 25.0666C192.623 24.6584 192.768 24.1336 192.768 23.4922C192.768 22.7924 192.608 22.2433 192.287 21.8449C191.996 21.5047 191.617 21.3346 191.15 21.3346C190.8 21.3346 190.523 21.4464 190.319 21.6699C190.086 21.8838 189.969 22.1753 189.969 22.5446V25.0812ZM198.452 24.7313C198.753 24.4884 198.904 24.3669 198.904 24.3669C199.856 23.5797 200.604 22.9334 201.149 22.428C201.703 21.9226 202.169 21.393 202.548 20.839C202.927 20.285 203.117 19.7456 203.117 19.2208C203.117 18.8224 203.024 18.5114 202.84 18.2878C202.655 18.0643 202.378 17.9525 202.009 17.9525C201.639 17.9525 201.348 18.0935 201.134 18.3753C200.93 18.6474 200.828 19.0362 200.828 19.5415H198.422C198.442 18.7155 198.617 18.0254 198.947 17.4715C199.287 16.9175 199.73 16.5093 200.274 16.2469C200.828 15.9845 201.44 15.8533 202.111 15.8533C203.267 15.8533 204.137 16.1497 204.72 16.7426C205.313 17.3354 205.609 18.108 205.609 19.0605C205.609 20.1004 205.255 21.0674 204.545 21.9615C203.836 22.8459 202.932 23.7109 201.834 24.5564H205.77V26.5827H198.452V24.7313ZM206.445 29.7753V29.5421C207.416 28.5313 208.17 27.3359 208.704 25.9559C209.239 24.5758 209.506 23.1423 209.506 21.6554C209.506 20.1587 209.229 18.7057 208.675 17.2965C208.121 15.8776 207.334 14.6628 206.313 13.652V13.4188H208.763C209.764 14.3323 210.536 15.518 211.08 16.9758C211.625 18.4239 211.897 19.9837 211.897 21.6554C211.897 23.3075 211.634 24.848 211.11 26.2766C210.585 27.7052 209.851 28.8715 208.908 29.7753H206.445Z" fill="#29B6AB"/>
<path d="M36.8553 47.7088V52.1822H37.4926V53.4567H36.8428C36.7762 54.4563 36.3805 55.2227 35.6557 55.7559C35.056 56.1974 34.3187 56.4181 33.444 56.4181C33.2941 56.4181 33.1317 56.414 32.9567 56.4056L32.3444 55.6434V55.1061C32.611 55.1478 32.8692 55.1686 33.1192 55.1686C34.5936 55.1686 35.3309 54.4522 35.3309 53.0194V47.7088H36.8553ZM41.1723 49.808C42.2885 48.3003 43.6672 47.5464 45.3083 47.5464C46.3079 47.5464 47.1326 47.8587 47.7824 48.4835C48.3738 49.05 48.6696 49.7664 48.6696 50.6327V51.7823C48.6696 51.8323 48.6654 51.9031 48.6571 51.9947C48.6571 52.078 48.6571 52.1405 48.6571 52.1822H49.0694V53.4567H48.8195L48.4071 52.9444H48.3697C48.0948 53.2859 47.7407 53.4567 47.3075 53.4567H37.4112V52.1822H39.6603L39.6478 47.7088H41.1723V49.808ZM47.1451 50.7077C47.1368 50.1079 46.9077 49.6331 46.4579 49.2832C46.0747 49 45.6123 48.8584 45.0709 48.8584C44.2378 48.8584 43.4673 49.2041 42.7592 49.8955C42.1094 50.437 41.5805 51.1992 41.1723 52.1822H46.8327C47.041 52.1822 47.1451 52.078 47.1451 51.8698V50.7077ZM51.2034 52.1822C51.0035 51.699 50.9035 51.1575 50.9035 50.5578C50.9035 49.5748 51.2076 48.8126 51.8157 48.2711C52.3238 47.8129 52.9736 47.5797 53.765 47.5714C54.473 47.5714 55.052 47.738 55.5018 48.0712C56.0516 48.4877 56.3265 49.0875 56.3265 49.8705V51.8698C56.3265 51.9448 56.3474 52.0156 56.389 52.0822C56.4557 52.1489 56.5306 52.1822 56.6139 52.1822H56.7264V53.4567H56.1766C55.8017 53.4567 55.481 53.3234 55.2144 53.0569C54.8063 53.5733 54.2648 53.8316 53.59 53.8316C52.8653 53.8316 52.2489 53.565 51.7407 53.0319H51.7157L51.3658 53.4567H48.9792V52.1822H51.2034ZM54.8021 49.8705C54.8021 49.5623 54.7063 49.3124 54.5147 49.1208C54.3398 48.9292 54.0898 48.8334 53.765 48.8334C53.3568 48.8334 53.0277 48.9917 52.7778 49.3082C52.5362 49.6248 52.4155 50.0496 52.4155 50.5828C52.4155 51.1659 52.5404 51.6407 52.7903 52.0072C53.0402 52.3738 53.3609 52.557 53.7525 52.557C54.1107 52.557 54.4605 52.3863 54.8021 52.0447V49.8705ZM60.4036 47.7088V52.0822C60.4036 52.4071 60.2953 52.707 60.0787 52.9819C59.8038 53.2984 59.4622 53.4567 59.0541 53.4567H56.6424V52.1822H58.5667C58.6584 52.1822 58.7375 52.1489 58.8041 52.0822C58.8625 52.0239 58.8916 51.9531 58.8916 51.8698V47.7088H60.4036ZM59.3664 54.3689C59.5914 54.3689 59.783 54.448 59.9412 54.6063C60.0995 54.7646 60.1786 54.9562 60.1786 55.1811C60.1786 55.406 60.0995 55.5976 59.9412 55.7559C59.783 55.9142 59.5914 55.9933 59.3664 55.9933C59.1415 55.9933 58.9499 55.9142 58.7917 55.7559C58.6417 55.5976 58.5667 55.406 58.5667 55.1811C58.5667 54.9562 58.6417 54.7646 58.7917 54.6063C58.9499 54.448 59.1415 54.3689 59.3664 54.3689ZM66.9609 44.9598C67.1859 44.9598 67.3775 45.0389 67.5357 45.1972C67.694 45.3555 67.7731 45.5471 67.7731 45.772C67.7731 45.9886 67.694 46.176 67.5357 46.3343C67.3775 46.4926 67.1859 46.5717 66.9609 46.5717C66.736 46.5717 66.5444 46.4926 66.3862 46.3343C66.2279 46.176 66.1487 45.9886 66.1487 45.772C66.1487 45.5471 66.2279 45.3555 66.3862 45.1972C66.5444 45.0389 66.736 44.9598 66.9609 44.9598ZM68.8603 44.9598C69.0852 44.9598 69.2768 45.0389 69.435 45.1972C69.5933 45.3555 69.6725 45.5471 69.6725 45.772C69.6725 45.9886 69.5933 46.176 69.435 46.3343C69.2768 46.4926 69.0852 46.5717 68.8603 46.5717C68.6437 46.5717 68.4562 46.4926 68.298 46.3343C68.1397 46.176 68.0605 45.9886 68.0605 45.772C68.0605 45.5471 68.1397 45.3555 68.298 45.1972C68.4562 45.0389 68.6437 44.9598 68.8603 44.9598ZM69.6725 47.3714V51.8698C69.6725 51.9698 69.7016 52.0447 69.7599 52.0947C69.8099 52.153 69.8765 52.1822 69.9599 52.1822H70.3097V53.4567H69.5225C69.1393 53.4567 68.7936 53.3026 68.4854 52.9944C68.0106 53.3859 67.4816 53.5817 66.8985 53.5817C66.2404 53.5817 65.6739 53.3734 65.1991 52.9569C64.566 52.3654 64.2494 51.5741 64.2494 50.5828C64.2494 49.6748 64.541 48.9209 65.1241 48.3211C65.6573 47.7796 66.3112 47.5089 67.0859 47.5089C67.5191 47.5089 67.9522 47.6005 68.3854 47.7838L68.9227 47.3714H69.6725ZM68.148 48.9833C67.8565 48.875 67.5774 48.8209 67.3108 48.8209C66.861 48.8209 66.4903 48.9875 66.1987 49.3207C65.9072 49.6456 65.7614 50.0704 65.7614 50.5953C65.7614 51.1201 65.8905 51.5407 66.1487 51.8573C66.4153 52.1738 66.7693 52.3321 67.2109 52.3321C67.5107 52.3321 67.8231 52.2655 68.148 52.1322V48.9833ZM73.9726 49.808C75.0888 48.3003 76.4675 47.5464 78.1085 47.5464C79.1082 47.5464 79.9329 47.8587 80.5826 48.4835C81.1741 49.0583 81.4698 49.7747 81.4698 50.6327V52.0822C81.4698 52.4571 81.3407 52.7736 81.0825 53.0319C80.8242 53.3151 80.5035 53.4567 80.1203 53.4567H70.2114V52.1822H72.4606V47.7088H73.9726V49.808ZM79.9454 50.7077C79.9454 50.1912 79.7788 49.7747 79.4456 49.4582C79.0457 49.0583 78.5209 48.8584 77.8711 48.8584C77.2297 48.8584 76.6049 49.0708 75.9968 49.4957C75.1804 50.0621 74.5057 50.9576 73.9726 52.1822H79.633C79.8412 52.1822 79.9454 52.078 79.9454 51.8698V50.7077ZM84.5456 44.51V51.8698C84.5456 51.9531 84.5706 52.0197 84.6205 52.0697C84.6705 52.1447 84.7497 52.1822 84.8579 52.1822H85.1828V53.4567H84.3706C84.0291 53.4567 83.7292 53.3359 83.471 53.0943C83.1711 52.8194 83.0211 52.4821 83.0211 52.0822V44.51H84.5456ZM89.0349 44.9598C89.2599 44.9598 89.4515 45.0389 89.6097 45.1972C89.768 45.3555 89.8471 45.5471 89.8471 45.772C89.8471 45.9886 89.768 46.176 89.6097 46.3343C89.4515 46.4926 89.2599 46.5717 89.0349 46.5717C88.8184 46.5717 88.6309 46.4926 88.4726 46.3343C88.3144 46.176 88.2352 45.9886 88.2352 45.772C88.2352 45.5471 88.3144 45.3555 88.4726 45.1972C88.6309 45.0389 88.8184 44.9598 89.0349 44.9598ZM86.7483 47.9212C87.5397 47.6796 88.2602 47.5589 88.91 47.5589C89.918 47.5589 90.7302 47.8754 91.3466 48.5085C91.9047 49.075 92.1838 49.7914 92.1838 50.6577V52.1822H92.5961V53.4567H92.3337L91.9214 52.9444H91.8964C91.6132 53.2859 91.2591 53.4567 90.8343 53.4567H85.0864V52.1822H90.347C90.5552 52.1822 90.6594 52.078 90.6594 51.8698V50.7452C90.6594 50.1787 90.4678 49.7247 90.0846 49.3832C89.7097 49.0333 89.214 48.8584 88.5976 48.8584C88.1894 48.8584 87.573 48.95 86.7483 49.1333V47.9212ZM96.267 44.51V52.0822C96.267 52.4321 96.1545 52.732 95.9296 52.9819C95.6714 53.2984 95.334 53.4567 94.9175 53.4567H92.5058V52.1822H94.4301C94.5218 52.1822 94.6009 52.1489 94.6676 52.0822C94.7259 52.0239 94.755 51.9531 94.755 51.8698V44.51H96.267ZM99.5181 44.51V53.1443L98.7434 53.7691H97.9937V44.51H99.5181ZM106.07 44.9598C106.295 44.9598 106.487 45.0389 106.645 45.1972C106.803 45.3555 106.882 45.5471 106.882 45.772C106.882 45.9886 106.803 46.176 106.645 46.3343C106.487 46.4926 106.295 46.5717 106.07 46.5717C105.845 46.5717 105.654 46.4926 105.495 46.3343C105.337 46.176 105.258 45.9886 105.258 45.772C105.258 45.5471 105.337 45.3555 105.495 45.1972C105.654 45.0389 105.845 44.9598 106.07 44.9598ZM107.97 44.9598C108.194 44.9598 108.386 45.0389 108.544 45.1972C108.703 45.3555 108.782 45.5471 108.782 45.772C108.782 45.9886 108.703 46.176 108.544 46.3343C108.386 46.4926 108.194 46.5717 107.97 46.5717C107.753 46.5717 107.566 46.4926 107.407 46.3343C107.249 46.176 107.17 45.9886 107.17 45.772C107.17 45.5471 107.249 45.3555 107.407 45.1972C107.566 45.0389 107.753 44.9598 107.97 44.9598ZM108.782 47.3714V51.8698C108.782 51.9698 108.811 52.0447 108.869 52.0947C108.919 52.153 108.986 52.1822 109.069 52.1822H109.419V53.4567H108.632C108.249 53.4567 107.903 53.3026 107.595 52.9944C107.12 53.3859 106.591 53.5817 106.008 53.5817C105.35 53.5817 104.783 53.3734 104.308 52.9569C103.675 52.3654 103.359 51.5741 103.359 50.5828C103.359 49.6748 103.65 48.9209 104.233 48.3211C104.767 47.7796 105.42 47.5089 106.195 47.5089C106.628 47.5089 107.062 47.6005 107.495 47.7838L108.032 47.3714H108.782ZM107.257 48.9833C106.966 48.875 106.687 48.8209 106.42 48.8209C105.97 48.8209 105.6 48.9875 105.308 49.3207C105.016 49.6456 104.871 50.0704 104.871 50.5953C104.871 51.1201 105 51.5407 105.258 51.8573C105.525 52.1738 105.879 52.3321 106.32 52.3321C106.62 52.3321 106.932 52.2655 107.257 52.1322V48.9833ZM113.094 47.7088V52.0822C113.094 52.4071 112.986 52.707 112.769 52.9819C112.495 53.2984 112.153 53.4567 111.745 53.4567H109.333V52.1822H111.258C111.349 52.1822 111.428 52.1489 111.495 52.0822C111.553 52.0239 111.582 51.9531 111.582 51.8698V47.7088H113.094ZM112.057 54.3689C112.282 54.3689 112.474 54.448 112.632 54.6063C112.79 54.7646 112.869 54.9562 112.869 55.1811C112.869 55.406 112.79 55.5976 112.632 55.7559C112.474 55.9142 112.282 55.9933 112.057 55.9933C111.832 55.9933 111.641 55.9142 111.482 55.7559C111.332 55.5976 111.258 55.406 111.258 55.1811C111.258 54.9562 111.332 54.7646 111.482 54.6063C111.641 54.448 111.832 54.3689 112.057 54.3689ZM118.32 47.7088V52.1822H118.957V53.4567H118.307C118.241 54.4563 117.845 55.2227 117.12 55.7559C116.52 56.1974 115.783 56.4181 114.909 56.4181C114.759 56.4181 114.596 56.414 114.421 56.4056L113.809 55.6434V55.1061C114.076 55.1478 114.334 55.1686 114.584 55.1686C116.058 55.1686 116.795 54.4522 116.795 53.0194V47.7088H118.32ZM120.613 49.908C120.896 49.0916 121.412 48.471 122.162 48.0462C122.72 47.7296 123.324 47.5714 123.974 47.5714C124.624 47.5714 125.219 47.7463 125.761 48.0962C126.435 48.5043 126.919 49.1083 127.21 49.908L127.06 50.2579C126.727 50.4078 126.377 50.6661 126.011 51.0326C125.661 51.4158 125.432 51.799 125.323 52.1822H127.335V53.4567H124.586C124.353 53.4567 124.14 53.3484 123.949 53.1318H123.886C123.695 53.3484 123.474 53.4567 123.224 53.4567H118.876V52.1822H122.499C122.399 51.8406 122.187 51.4783 121.862 51.0951C121.504 50.6952 121.133 50.4162 120.75 50.2579L120.613 49.908ZM125.611 49.808C125.411 49.4582 125.14 49.1999 124.798 49.0333C124.54 48.9084 124.253 48.8459 123.936 48.8459C123.603 48.8459 123.287 48.9167 122.987 49.0583C122.653 49.2249 122.395 49.4748 122.212 49.808C122.495 49.933 122.795 50.1829 123.112 50.5578C123.461 50.9493 123.72 51.3741 123.886 51.8323H123.936C124.095 51.3658 124.365 50.9201 124.749 50.4953C125.057 50.1537 125.344 49.9247 125.611 49.808ZM131.008 44.51V52.0822C131.008 52.4321 130.895 52.732 130.67 52.9819C130.412 53.2984 130.075 53.4567 129.658 53.4567H127.247V52.1822H129.171C129.263 52.1822 129.342 52.1489 129.408 52.0822C129.467 52.0239 129.496 51.9531 129.496 51.8698V44.51H131.008ZM134.259 44.51V53.1443L133.484 53.7691H132.734V44.51H134.259ZM139.174 47.6338C139.457 47.5838 139.786 47.5589 140.161 47.5589C141.119 47.5589 141.894 47.8671 142.485 48.4835C143.01 49.0417 143.273 49.7331 143.273 50.5578V51.7573C143.273 51.9489 143.268 52.0905 143.26 52.1822H143.585V53.4567H143.423L143.01 52.9444H142.973C142.906 53.0194 142.835 53.0902 142.76 53.1568C142.51 53.3567 142.231 53.4567 141.923 53.4567H137.912V52.1822H141.436C141.644 52.1822 141.748 52.078 141.748 51.8698V50.7077C141.748 50.1329 141.573 49.6706 141.223 49.3207C140.898 48.9958 140.428 48.8209 139.811 48.7959C139.528 48.7959 139.316 48.8126 139.174 48.8459V47.6338ZM146.537 47.8463C147.487 47.4297 148.415 47.2215 149.323 47.2215C150.498 47.2215 151.393 47.588 152.01 48.3211C152.535 48.9542 152.797 49.7914 152.797 50.8327V52.0822C152.797 52.4571 152.655 52.7861 152.372 53.0694C152.114 53.3276 151.806 53.4567 151.448 53.4567H148.411C147.978 53.4567 147.67 53.4109 147.487 53.3193H147.437C147.253 53.4109 146.945 53.4567 146.512 53.4567H143.488V52.1822H145.737C145.596 51.9822 145.491 51.7698 145.425 51.5449C145.341 51.3033 145.3 51.0326 145.3 50.7327C145.3 50.2329 145.425 49.7914 145.675 49.4082C145.883 49.1 146.17 48.8667 146.537 48.7084V47.8463ZM151.273 51.0326C151.273 50.0996 151.069 49.4248 150.66 49.0083C150.277 48.6251 149.694 48.4335 148.911 48.4335C148.553 48.4335 148.182 48.4752 147.799 48.5585C148.332 48.6335 148.765 48.8584 149.098 49.2332C149.448 49.6248 149.623 50.1246 149.623 50.7327C149.623 51.0076 149.586 51.2658 149.511 51.5074C149.436 51.7657 149.332 51.9906 149.198 52.1822H150.948C151.039 52.1822 151.114 52.1572 151.173 52.1072C151.239 52.0406 151.273 51.9614 151.273 51.8698V51.0326ZM147.449 52.0322C147.741 51.9989 147.961 51.8698 148.111 51.6449C148.261 51.4283 148.345 51.1409 148.361 50.7827C148.361 50.3828 148.27 50.0788 148.086 49.8705C147.911 49.6706 147.699 49.5706 147.449 49.5706C147.116 49.5706 146.866 49.7206 146.699 50.0205C146.583 50.237 146.524 50.4911 146.524 50.7827C146.541 51.1159 146.616 51.3908 146.749 51.6074C146.916 51.8573 147.149 51.9989 147.449 52.0322ZM155.87 44.51V51.8698C155.87 51.9531 155.895 52.0197 155.945 52.0697C155.995 52.1447 156.074 52.1822 156.182 52.1822H156.507V53.4567H155.695C155.353 53.4567 155.053 53.3359 154.795 53.0943C154.495 52.8194 154.345 52.4821 154.345 52.0822V44.51H155.87ZM164.757 43.4603C164.966 43.4603 165.141 43.5353 165.282 43.6853C165.424 43.8269 165.495 44.0018 165.495 44.2101C165.495 44.4183 165.424 44.5933 165.282 44.7349C165.141 44.8765 164.966 44.9473 164.757 44.9473C164.549 44.9473 164.37 44.8765 164.22 44.7349C164.079 44.5933 164.008 44.4183 164.008 44.2101C164.008 44.0018 164.079 43.8269 164.22 43.6853C164.37 43.5353 164.549 43.4603 164.757 43.4603ZM163.808 44.9598C164.033 44.9598 164.22 45.0389 164.37 45.1972C164.528 45.3555 164.608 45.5471 164.608 45.772C164.608 45.9969 164.528 46.1885 164.37 46.3468C164.22 46.4967 164.033 46.5717 163.808 46.5717C163.583 46.5717 163.391 46.4967 163.233 46.3468C163.083 46.1885 163.008 45.9969 163.008 45.772C163.008 45.5471 163.083 45.3555 163.233 45.1972C163.391 45.0389 163.583 44.9598 163.808 44.9598ZM165.695 44.9598C165.92 44.9598 166.111 45.0389 166.269 45.1972C166.428 45.3555 166.507 45.5471 166.507 45.772C166.507 45.9886 166.428 46.176 166.269 46.3343C166.111 46.4926 165.92 46.5717 165.695 46.5717C165.478 46.5717 165.291 46.4926 165.132 46.3343C164.974 46.176 164.895 45.9886 164.895 45.772C164.895 45.5471 164.974 45.3555 165.132 45.1972C165.291 45.0389 165.478 44.9598 165.695 44.9598ZM169.681 47.7088V52.1822H170.318V53.4567H169.831L169.418 52.9444H169.393C169.11 53.2859 168.756 53.4567 168.331 53.4567H165.657L165.245 52.9444H165.207C164.932 53.2859 164.583 53.4567 164.158 53.4567H161.471L161.059 52.9444H161.021C160.746 53.2859 160.397 53.4567 159.972 53.4567H156.423V52.1822H159.484C159.693 52.1822 159.797 52.078 159.797 51.8698V49.1458H161.321V51.7948C161.321 51.9698 161.317 52.0989 161.309 52.1822H163.67C163.879 52.1822 163.983 52.078 163.983 51.8698V48.421H165.507V51.7573C165.507 51.8073 165.503 51.8823 165.495 51.9822C165.495 52.0739 165.495 52.1405 165.495 52.1822H167.844C168.052 52.1822 168.156 52.078 168.156 51.8698V47.7088H169.681ZM171.436 44.9598C171.661 44.9598 171.852 45.0389 172.011 45.1972C172.169 45.3555 172.248 45.5471 172.248 45.772C172.248 45.9886 172.169 46.176 172.011 46.3343C171.852 46.4926 171.661 46.5717 171.436 46.5717C171.211 46.5717 171.019 46.4926 170.861 46.3343C170.703 46.176 170.624 45.9886 170.624 45.772C170.624 45.5471 170.703 45.3555 170.861 45.1972C171.019 45.0389 171.211 44.9598 171.436 44.9598ZM173.335 44.9598C173.56 44.9598 173.752 45.0389 173.91 45.1972C174.068 45.3555 174.147 45.5471 174.147 45.772C174.147 45.9886 174.068 46.176 173.91 46.3343C173.752 46.4926 173.56 46.5717 173.335 46.5717C173.119 46.5717 172.931 46.4926 172.773 46.3343C172.615 46.176 172.536 45.9886 172.536 45.772C172.536 45.5471 172.615 45.3555 172.773 45.1972C172.931 45.0389 173.119 44.9598 173.335 44.9598ZM173.985 47.7088V52.0822C173.985 52.4071 173.877 52.707 173.66 52.9819C173.385 53.2984 173.044 53.4567 172.635 53.4567H170.224V52.1822H172.148C172.24 52.1822 172.319 52.1489 172.386 52.0822C172.444 52.0239 172.473 51.9531 172.473 51.8698V47.7088H173.985ZM182.251 47.5589C182.476 47.5589 182.667 47.638 182.826 47.7963C182.984 47.9545 183.063 48.1461 183.063 48.3711C183.063 48.596 182.984 48.7876 182.826 48.9459C182.667 49.1041 182.476 49.1833 182.251 49.1833C182.034 49.1833 181.847 49.1041 181.688 48.9459C181.53 48.7876 181.451 48.596 181.451 48.3711C181.451 48.1461 181.53 47.9545 181.688 47.7963C181.847 47.638 182.034 47.5589 182.251 47.5589ZM186.499 47.7088V53.1568C186.499 54.1898 186.178 54.9937 185.537 55.5684C184.896 56.1516 184.033 56.4431 182.95 56.4431H181.713C180.564 56.4431 179.668 56.1224 179.027 55.481C178.452 54.9062 178.165 54.1315 178.165 53.1568V50.9201L178.939 50.2954H179.689V53.0194C179.689 53.8024 179.889 54.3564 180.289 54.6813C180.689 55.0061 181.372 55.1686 182.338 55.1686C183.271 55.1686 183.933 55.0186 184.325 54.7188C184.758 54.3855 184.975 53.8191 184.975 53.0194V47.7088H186.499ZM194.78 44.51V52.0822C194.78 52.4404 194.663 52.7445 194.43 52.9944C194.163 53.3026 193.83 53.4567 193.43 53.4567H188.42L187.795 52.682V52.1822H190.831L188.769 46.0469H190.194L192.268 52.1822H192.943C193.043 52.1822 193.126 52.1489 193.193 52.0822C193.234 52.0156 193.255 51.9448 193.255 51.8698V44.51H194.78ZM198.03 44.51V53.1443L197.255 53.7691H196.505V44.51H198.03ZM206.369 47.3714C206.594 47.3714 206.785 47.4506 206.943 47.6088C207.102 47.7671 207.181 47.9587 207.181 48.1836C207.181 48.4085 207.102 48.6001 206.943 48.7584C206.785 48.9167 206.594 48.9958 206.369 48.9958C206.152 48.9958 205.965 48.9167 205.806 48.7584C205.648 48.6001 205.569 48.4085 205.569 48.1836C205.569 47.9587 205.648 47.7671 205.806 47.6088C205.965 47.4506 206.152 47.3714 206.369 47.3714ZM208.28 47.3714C208.497 47.3714 208.684 47.4506 208.843 47.6088C209.001 47.7671 209.08 47.9587 209.08 48.1836C209.08 48.4085 209.001 48.6001 208.843 48.7584C208.684 48.9167 208.497 48.9958 208.28 48.9958C208.055 48.9958 207.864 48.9167 207.706 48.7584C207.547 48.6001 207.468 48.4085 207.468 48.1836C207.468 47.9587 207.547 47.7671 207.706 47.6088C207.864 47.4506 208.055 47.3714 208.28 47.3714ZM212.579 47.7088V51.9947C212.579 52.078 212.575 52.1405 212.566 52.1822H213.216V53.4567H212.791L212.316 52.9444H212.279C212.021 53.2859 211.671 53.4567 211.229 53.4567H204.232C203.699 53.4567 203.236 53.2859 202.845 52.9444C202.312 52.5029 202.045 51.9239 202.045 51.2075V49.2332L202.82 48.6085H203.57V51.2075C203.57 51.4991 203.67 51.7365 203.87 51.9198C204.061 52.0947 204.282 52.1822 204.532 52.1822H210.705C210.813 52.1822 210.904 52.1447 210.979 52.0697C211.029 52.0031 211.054 51.9239 211.054 51.8323V47.7088H212.579ZM216.127 44.9598C216.352 44.9598 216.544 45.0389 216.702 45.1972C216.86 45.3555 216.94 45.5471 216.94 45.772C216.94 45.9886 216.86 46.176 216.702 46.3343C216.544 46.4926 216.352 46.5717 216.127 46.5717C215.911 46.5717 215.723 46.4926 215.565 46.3343C215.407 46.176 215.328 45.9886 215.328 45.772C215.328 45.5471 215.407 45.3555 215.565 45.1972C215.723 45.0389 215.911 44.9598 216.127 44.9598ZM216.89 47.7088V52.0822C216.89 52.4071 216.781 52.707 216.565 52.9819C216.29 53.2984 215.948 53.4567 215.54 53.4567H213.128V52.1822H215.053C215.144 52.1822 215.224 52.1489 215.29 52.0822C215.348 52.0239 215.378 51.9531 215.378 51.8698V47.7088H216.89ZM220.141 44.51V53.1443L219.366 53.7691H218.616V44.51H220.141Z" fill="#AAAAAA"/>
<g clip-path="url(#clip0_869_16882)">
<path d="M255.884 38.7391L231.179 38.7386C229.977 38.7386 229.003 39.7128 229.002 40.9147L229.002 45.0844L258.06 45.085L258.06 40.9153C258.06 39.7134 257.086 38.7391 255.884 38.7391Z" fill="#FF4B55"/>
<path d="M229 55.5999C229 56.8017 229.975 57.7761 231.177 57.7761L255.882 57.7766C257.084 57.7766 258.058 56.8023 258.058 55.6004L258.058 51.4307L229.001 51.4302L229 55.5999Z" fill="#464655"/>
<path d="M258.06 45.085L229.003 45.0845L229.002 51.43L258.06 51.4306L258.06 45.085Z" fill="#F5F5F5"/>
<path d="M245.13 47.2683C245.13 47.0198 244.886 46.8444 244.65 46.923L244.208 47.0706L244.1 46.4211C244.036 46.0337 243.704 45.7525 243.311 45.7525L242.897 45.7525L242.463 46.2857L243.037 46.2857L242.877 47.0787L242.409 46.9229C242.174 46.8443 241.93 47.0198 241.93 47.2682L241.93 49.9625L242.575 49.3177L242.271 50.2292L241.93 50.2292L241.93 50.7624L245.13 50.7625L245.13 50.2292L244.789 50.2292L244.485 49.3177L245.13 49.9626L245.13 47.2683L245.13 47.2683ZM243.263 50.2291L242.833 50.2291L243.129 49.4397L243.263 49.6112L243.263 50.2291ZM243.796 50.2291L243.796 49.6112L243.931 49.4398L244.226 50.2291L243.796 50.2291ZM243.53 49.2627C243.53 49.2627 242.705 48.7045 242.738 47.663C242.738 47.663 243.247 47.5797 243.53 47.1298C243.813 47.5797 244.321 47.6631 244.321 47.6631C244.355 48.7045 243.53 49.2627 243.53 49.2627Z" fill="#F0C727"/>
</g>
<rect x="1.5" y="1.5" width="287.058" height="70.7865" rx="8.44192" stroke="black" stroke-width="3"/>
<defs>
<clipPath id="clip0_869_16882">
<rect width="29.0574" height="29.0574" fill="white" transform="translate(229.001 33.7285)"/>
</clipPath>
</defs>
</svg>
