<svg width="403" height="70" viewBox="0 0 403 70" fill="none" xmlns="http://www.w3.org/2000/svg">
<rect x="1.5" y="1.5" width="399.659" height="67" rx="7.75817" fill="white"/>
<path d="M232.791 29.2467C231.941 28.4319 231.28 27.3805 230.807 26.0926C230.334 24.8047 230.097 23.416 230.097 21.9265C230.097 20.4196 230.342 19.0134 230.833 17.7079C231.324 16.3937 232.02 15.3248 232.923 14.5012H235.131V14.7115C234.211 15.6227 233.501 16.7179 233.002 17.997C232.502 19.2674 232.252 20.5773 232.252 21.9265C232.252 23.267 232.493 24.5593 232.975 25.8035C233.457 27.0476 234.136 28.1252 235.012 29.0364V29.2467H232.791ZM237.661 20.678C238.52 20.4239 239.225 20.2969 239.777 20.2969C240.828 20.2969 241.678 20.6298 242.327 21.2957C242.905 21.8915 243.194 22.645 243.194 23.5562V24.7127C243.194 24.9142 243.19 25.0631 243.181 25.1595H243.615V26.5H243.352L242.918 25.9612H242.879C242.59 26.3204 242.222 26.5 241.775 26.5H239.383C238.647 26.5 238.126 26.7234 237.819 27.1703C237.635 27.4419 237.543 27.7879 237.543 28.2085C237.543 29.4789 238.362 30.1141 240.001 30.1141C240.36 30.1141 240.776 30.0703 241.249 29.9827V30.5346L240.592 31.3626C240.32 31.4239 240.014 31.459 239.672 31.4677C238.743 31.4677 237.959 31.2575 237.32 30.8369C236.4 30.2674 235.94 29.3738 235.94 28.1559C235.94 27.2447 236.233 26.5263 236.82 26.0006C237.442 25.4399 238.353 25.1595 239.554 25.1595H241.262C241.481 25.1595 241.591 25.05 241.591 24.8309V23.6482C241.591 23.0436 241.394 22.5661 240.999 22.2157C240.614 21.8564 240.088 21.6768 239.422 21.6768C238.993 21.6768 238.406 21.7688 237.661 21.9528V20.678ZM240.027 27.4594C240.263 27.4594 240.465 27.5426 240.631 27.7091C240.798 27.8755 240.881 28.0771 240.881 28.3136C240.881 28.5502 240.798 28.7517 240.631 28.9182C240.465 29.0846 240.263 29.1679 240.027 29.1679C239.79 29.1679 239.589 29.0846 239.422 28.9182C239.265 28.7517 239.186 28.5502 239.186 28.3136C239.186 28.0771 239.265 27.8755 239.422 27.7091C239.589 27.5426 239.79 27.4594 240.027 27.4594ZM244.794 17.5633C245.031 17.5633 245.232 17.6466 245.399 17.813C245.565 17.9795 245.649 18.181 245.649 18.4176C245.649 18.6454 245.565 18.8425 245.399 19.009C245.232 19.1754 245.031 19.2587 244.794 19.2587C244.558 19.2587 244.356 19.1754 244.19 19.009C244.023 18.8425 243.94 18.6454 243.94 18.4176C243.94 18.181 244.023 17.9795 244.19 17.813C244.356 17.6466 244.558 17.5633 244.794 17.5633ZM246.792 17.5633C247.029 17.5633 247.23 17.6466 247.396 17.813C247.563 17.9795 247.646 18.181 247.646 18.4176C247.646 18.6454 247.563 18.8425 247.396 19.009C247.23 19.1754 247.029 19.2587 246.792 19.2587C246.564 19.2587 246.367 19.1754 246.201 19.009C246.034 18.8425 245.951 18.6454 245.951 18.4176C245.951 18.181 246.034 17.9795 246.201 17.813C246.367 17.6466 246.564 17.5633 246.792 17.5633ZM247.475 20.4546V25.1595H248.146V26.5H247.686L247.199 25.9612H247.173C246.875 26.3204 246.503 26.5 246.056 26.5H243.52V25.1595H245.504C245.627 25.1595 245.714 25.1245 245.767 25.0544C245.846 24.9843 245.885 24.8967 245.885 24.7915V20.4546H247.475ZM251.204 17.5633C251.441 17.5633 251.642 17.6466 251.809 17.813C251.975 17.9795 252.058 18.181 252.058 18.4176C252.058 18.6454 251.975 18.8425 251.809 19.009C251.642 19.1754 251.441 19.2587 251.204 19.2587C250.976 19.2587 250.779 19.1754 250.613 19.009C250.446 18.8425 250.363 18.6454 250.363 18.4176C250.363 18.181 250.446 17.9795 250.613 17.813C250.779 17.6466 250.976 17.5633 251.204 17.5633ZM252.006 20.4546V25.1595H252.676V26.5H252.216L251.73 25.9612H251.704C251.406 26.3204 251.033 26.5 250.586 26.5H248.05V25.1595H250.034C250.157 25.1595 250.245 25.1245 250.297 25.0544C250.376 24.9843 250.416 24.8967 250.416 24.7915V20.4546H252.006ZM254.933 22.7282C254.933 21.8959 255.222 21.265 255.8 20.8357C256.256 20.4853 256.878 20.31 257.666 20.31C258.437 20.31 259.09 20.5378 259.625 20.9934C260.299 21.5717 260.637 22.3909 260.637 23.451C260.637 24.4498 260.369 25.2778 259.835 25.9349C259.318 26.5745 258.648 26.8943 257.824 26.8943C257.097 26.8943 256.523 26.6227 256.103 26.0795C255.822 26.3598 255.48 26.5 255.077 26.5H252.567V25.1595H254.591C254.688 25.1595 254.771 25.1245 254.841 25.0544C254.902 24.993 254.933 24.9186 254.933 24.8309V22.7282ZM256.523 25.0149C256.847 25.3654 257.22 25.5406 257.64 25.5406C258.052 25.5406 258.389 25.361 258.652 25.0018C258.915 24.6338 259.046 24.1607 259.046 23.5824C259.046 22.9516 258.902 22.4566 258.613 22.0974C258.35 21.7907 258.008 21.6374 257.588 21.6374C257.272 21.6374 257.023 21.7382 256.839 21.9397C256.628 22.1324 256.523 22.3953 256.523 22.7282V25.0149ZM271.004 18.8644H266.903V20.678C267.079 20.4853 267.324 20.3276 267.639 20.2049C267.955 20.0822 268.296 20.0209 268.664 20.0209C269.322 20.0209 269.865 20.1699 270.294 20.4677C270.732 20.7656 271.052 21.1511 271.253 21.6243C271.455 22.0974 271.556 22.6099 271.556 23.1619C271.556 24.187 271.267 25.0018 270.688 25.6063C270.11 26.2021 269.295 26.5 268.244 26.5C267.543 26.5 266.934 26.3817 266.417 26.1452C265.9 25.8998 265.502 25.5625 265.221 25.1332C264.941 24.7039 264.787 24.2089 264.761 23.6482H266.956C267.008 23.9198 267.136 24.1476 267.337 24.3315C267.539 24.5068 267.815 24.5944 268.165 24.5944C268.577 24.5944 268.883 24.463 269.085 24.2001C269.286 23.9373 269.387 23.5868 269.387 23.1487C269.387 22.7194 269.282 22.3909 269.072 22.1631C268.862 21.9353 268.555 21.8214 268.152 21.8214C267.854 21.8214 267.609 21.8959 267.416 22.0448C267.223 22.185 267.096 22.3734 267.035 22.6099H264.866V16.8931H271.004V18.8644ZM272.415 29.2467V29.0364C273.291 28.1252 273.97 27.0476 274.452 25.8035C274.934 24.5593 275.175 23.267 275.175 21.9265C275.175 20.5773 274.925 19.2674 274.426 17.997C273.926 16.7179 273.217 15.6227 272.297 14.7115V14.5012H274.505C275.407 15.3248 276.104 16.3937 276.594 17.7079C277.085 19.0134 277.33 20.4196 277.33 21.9265C277.33 23.416 277.094 24.8047 276.621 26.0926C276.147 27.3805 275.486 28.4319 274.636 29.2467H272.415Z" fill="#29B6AB"/>
<path d="M286.014 20.5998C286.303 20.5998 286.544 20.7005 286.737 20.902C286.938 21.1036 287.039 21.3445 287.039 21.6249C287.039 21.914 286.938 22.1593 286.737 22.3608C286.544 22.5536 286.303 22.6499 286.014 22.6499C285.733 22.6499 285.493 22.5536 285.291 22.3608C285.089 22.1593 284.989 21.914 284.989 21.6249C284.989 21.3445 285.089 21.1036 285.291 20.902C285.493 20.7005 285.733 20.5998 286.014 20.5998ZM288.366 20.5998C288.655 20.5998 288.896 20.7005 289.089 20.902C289.291 21.1036 289.391 21.3445 289.391 21.6249C289.391 21.914 289.291 22.1593 289.089 22.3608C288.896 22.5536 288.655 22.6499 288.366 22.6499C288.086 22.6499 287.845 22.5536 287.643 22.3608C287.442 22.1593 287.341 21.914 287.341 21.6249C287.341 21.3445 287.442 21.1036 287.643 20.902C287.845 20.7005 288.086 20.5998 288.366 20.5998ZM292.874 20.9546V25.3704C292.874 25.7734 292.743 26.1239 292.48 26.4217C292.156 26.8072 291.744 27 291.244 27H284.016C283.403 27 282.864 26.8029 282.4 26.4086C281.804 25.9004 281.506 25.2477 281.506 24.4504V22.7288L282.531 21.9008H283.53V24.4504C283.53 24.7133 283.622 24.9279 283.806 25.0944C283.972 25.2346 284.148 25.3047 284.332 25.3047H290.653C290.784 25.3047 290.85 25.2433 290.85 25.1207V20.9546H292.874ZM296.711 17.5902V25.1207C296.711 25.1382 296.715 25.1645 296.724 25.1995L296.737 25.2127C296.763 25.274 296.816 25.3047 296.895 25.3047H297.381V27H296.316C295.887 27 295.51 26.8467 295.186 26.54C294.853 26.2159 294.687 25.826 294.687 25.3704V17.5902H296.711ZM299.017 21.178C299.85 20.9239 300.616 20.7969 301.317 20.7969C302.36 20.7969 303.24 21.1255 303.959 21.7826C304.625 22.3959 304.958 23.145 304.958 24.0299V25.1864C304.958 25.2214 304.962 25.2609 304.971 25.3047H305.378V27H305.115L304.629 26.3955H304.59C304.266 26.7985 303.841 27 303.315 27H297.27V25.3047H302.737C302.859 25.3047 302.921 25.2433 302.921 25.1207V24.2533C302.921 23.7539 302.719 23.3421 302.316 23.0179C301.922 22.685 301.427 22.5185 300.831 22.5185C300.34 22.5185 299.736 22.6105 299.017 22.7945V21.178ZM301.12 27.6045C301.401 27.6045 301.642 27.7053 301.843 27.9068C302.045 28.1083 302.145 28.3536 302.145 28.6428C302.145 28.9231 302.045 29.1641 301.843 29.3656C301.642 29.5671 301.401 29.6679 301.12 29.6679C300.831 29.6679 300.586 29.5671 300.384 29.3656C300.191 29.1641 300.095 28.9231 300.095 28.6428C300.095 28.3536 300.191 28.1083 300.384 27.9068C300.586 27.7053 300.831 27.6045 301.12 27.6045ZM306.487 18.0633C306.768 18.0633 307.008 18.1641 307.21 18.3656C307.411 18.5671 307.512 18.8081 307.512 19.0884C307.512 19.3688 307.411 19.6097 307.21 19.8112C307.008 20.0128 306.768 20.1135 306.487 20.1135C306.198 20.1135 305.953 20.0128 305.751 19.8112C305.558 19.6097 305.462 19.3688 305.462 19.0884C305.462 18.7993 305.558 18.5584 305.751 18.3656C305.953 18.1641 306.198 18.0633 306.487 18.0633ZM308.84 18.0633C309.12 18.0633 309.361 18.1641 309.562 18.3656C309.764 18.5671 309.865 18.8081 309.865 19.0884C309.865 19.3688 309.764 19.6097 309.562 19.8112C309.361 20.0128 309.12 20.1135 308.84 20.1135C308.55 20.1135 308.305 20.0128 308.104 19.8112C307.911 19.6097 307.814 19.3688 307.814 19.0884C307.814 18.7993 307.911 18.5584 308.104 18.3656C308.305 18.1641 308.55 18.0633 308.84 18.0633ZM309.668 20.9546V25.1864C309.668 25.2214 309.672 25.2609 309.681 25.3047H310.325V27H309.917L309.339 26.3955H309.313C308.98 26.7985 308.55 27 308.025 27H305.278V25.3047H307.381C307.46 25.3047 307.521 25.2784 307.565 25.2258C307.617 25.182 307.644 25.1207 307.644 25.0418V20.9546H309.668ZM313.596 18.0633C313.886 18.0633 314.126 18.1641 314.319 18.3656C314.521 18.5584 314.622 18.7993 314.622 19.0884C314.622 19.3688 314.521 19.6097 314.319 19.8112C314.126 20.0128 313.886 20.1135 313.596 20.1135C313.316 20.1135 313.075 20.0128 312.874 19.8112C312.672 19.6097 312.571 19.3688 312.571 19.0884C312.571 18.8081 312.672 18.5671 312.874 18.3656C313.075 18.1641 313.316 18.0633 313.596 18.0633ZM314.622 20.9546V25.1864C314.622 25.2214 314.626 25.2609 314.635 25.3047H315.279V27H314.871L314.293 26.3955H314.267C313.934 26.7985 313.504 27 312.979 27H310.232V25.3047H312.335C312.414 25.3047 312.475 25.2784 312.519 25.2258C312.571 25.182 312.598 25.1207 312.598 25.0418V20.9546H314.622ZM317.315 25.3047C317.236 24.9104 317.197 24.4329 317.197 23.8722C317.197 22.8558 317.53 22.0629 318.196 21.4934C318.739 21.0378 319.4 20.81 320.18 20.81C321.056 20.81 321.744 21.0203 322.243 21.4409C322.787 21.9052 323.058 22.5098 323.058 23.2545V25.1207C323.058 25.1732 323.076 25.217 323.111 25.2521C323.155 25.2871 323.207 25.3047 323.268 25.3047H323.479V27H322.677C322.274 27 321.915 26.8686 321.599 26.6057C321.188 27.1314 320.618 27.3943 319.891 27.3943C319.181 27.3943 318.572 27.1183 318.064 26.5663H318.012L317.67 27H315.186V25.3047H317.315ZM321.034 23.2676C321.034 23.0661 320.969 22.8865 320.837 22.7288C320.688 22.5711 320.487 22.4922 320.233 22.4922C319.908 22.4922 319.654 22.6237 319.47 22.8865C319.286 23.1406 319.194 23.4954 319.194 23.951C319.194 25.1163 319.51 25.6989 320.141 25.6989C320.447 25.6989 320.745 25.5675 321.034 25.3047V23.2676ZM327.777 17.5902V25.3704C327.777 25.7559 327.654 26.102 327.409 26.4086C327.076 26.8029 326.651 27 326.134 27H323.387V25.3047H325.555C325.608 25.3047 325.652 25.2915 325.687 25.2652C325.731 25.2302 325.753 25.182 325.753 25.1207V17.5902H327.777ZM331.619 17.5902V26.5006L330.594 27.3286H329.596V17.5902H331.619ZM337.462 21.178C338.382 20.9152 339.083 20.7838 339.565 20.7838C340.59 20.7838 341.462 21.1036 342.18 21.7431C342.872 22.4002 343.219 23.1625 343.219 24.0299V25.3704C343.219 25.8172 343.056 26.2071 342.732 26.54C342.417 26.8467 342.031 27 341.576 27H339.342C338.246 27 337.699 27.5344 337.699 28.6033C337.699 29.716 338.492 30.2724 340.078 30.2724C340.594 30.2724 341.09 30.1979 341.563 30.049V30.7587L340.682 31.8495C340.402 31.9283 340.073 31.9677 339.696 31.9677C338.426 31.9677 337.427 31.6392 336.7 30.9821C336.017 30.36 335.675 29.5102 335.675 28.4325C335.675 27.3198 336.109 26.4875 336.976 25.9355C337.642 25.5149 338.483 25.3047 339.499 25.3047H340.998C341.12 25.3047 341.182 25.2433 341.182 25.1207V24.2533C341.182 23.7802 340.984 23.3728 340.59 23.0311C340.196 22.6894 339.723 22.5185 339.171 22.5185C338.741 22.5185 338.172 22.6105 337.462 22.7945V21.178ZM340.091 27.6045C340.371 27.6045 340.612 27.7053 340.814 27.9068C341.015 28.1083 341.116 28.3536 341.116 28.6428C341.116 28.9231 341.015 29.1641 340.814 29.3656C340.612 29.5671 340.371 29.6679 340.091 29.6679C339.802 29.6679 339.556 29.5671 339.355 29.3656C339.162 29.1641 339.066 28.9231 339.066 28.6428C339.066 28.3536 339.166 28.1083 339.368 27.9068C339.569 27.7053 339.81 27.6045 340.091 27.6045ZM347.629 27C346.7 27 345.951 26.6714 345.382 26.0143C344.891 25.4536 344.646 24.7834 344.646 24.0036C344.646 23.0135 344.904 22.2513 345.421 21.7169C346.026 21.1036 346.797 20.7969 347.734 20.7969C348.409 20.7969 348.978 20.9502 349.443 21.2569C350.144 21.7212 350.494 22.3871 350.494 23.2545V25.3047H350.915V27H350.481C350.376 27.9638 349.99 28.7172 349.324 29.2605C348.921 29.6021 348.422 29.8475 347.826 29.9964C347.423 30.1015 346.998 30.1541 346.551 30.1541C346.359 30.1541 346.157 30.141 345.947 30.1147L345.066 29.037V28.3274C345.469 28.415 345.855 28.4588 346.223 28.4588C347.449 28.4588 348.177 27.9725 348.404 27H347.629ZM348.47 23.2676C348.47 22.996 348.369 22.7857 348.168 22.6368C348.036 22.5404 347.887 22.4922 347.721 22.4922C347.397 22.4922 347.134 22.6193 346.932 22.8734C346.74 23.1187 346.643 23.4472 346.643 23.859C346.643 24.8228 347.121 25.3047 348.076 25.3047H348.47V23.2676ZM355.216 17.5902V25.3704C355.216 25.7559 355.093 26.102 354.848 26.4086C354.515 26.8029 354.09 27 353.573 27H350.826V25.3047H352.995C353.047 25.3047 353.091 25.2915 353.126 25.2652C353.17 25.2302 353.192 25.182 353.192 25.1207V17.5902H355.216ZM359.059 17.5902V25.1207C359.059 25.1382 359.063 25.1645 359.072 25.1995L359.085 25.2127C359.111 25.274 359.164 25.3047 359.243 25.3047H359.729V27H358.665C358.235 27 357.859 26.8467 357.534 26.54C357.201 26.2159 357.035 25.826 357.035 25.3704V17.5902H359.059ZM360.827 18.0633C361.107 18.0633 361.348 18.1641 361.55 18.3656C361.751 18.5671 361.852 18.8081 361.852 19.0884C361.852 19.3688 361.751 19.6097 361.55 19.8112C361.348 20.0128 361.107 20.1135 360.827 20.1135C360.538 20.1135 360.292 20.0128 360.091 19.8112C359.898 19.6097 359.802 19.3688 359.802 19.0884C359.802 18.7993 359.898 18.5584 360.091 18.3656C360.292 18.1641 360.538 18.0633 360.827 18.0633ZM363.179 18.0633C363.46 18.0633 363.701 18.1641 363.902 18.3656C364.104 18.5671 364.204 18.8081 364.204 19.0884C364.204 19.3688 364.104 19.6097 363.902 19.8112C363.701 20.0128 363.46 20.1135 363.179 20.1135C362.89 20.1135 362.645 20.0128 362.443 19.8112C362.251 19.6097 362.154 19.3688 362.154 19.0884C362.154 18.7993 362.251 18.5584 362.443 18.3656C362.645 18.1641 362.89 18.0633 363.179 18.0633ZM364.007 20.9546V25.1864C364.007 25.2214 364.012 25.2609 364.02 25.3047H364.664V27H364.257L363.679 26.3955H363.652C363.32 26.7985 362.89 27 362.365 27H359.618V25.3047H361.721C361.799 25.3047 361.861 25.2784 361.905 25.2258C361.957 25.182 361.983 25.1207 361.983 25.0418V20.9546H364.007ZM371.117 17.3931V19.2987L368.856 20.718C369.785 21.1736 370.538 21.8395 371.117 22.7157C371.651 23.5217 371.918 24.354 371.918 25.2127C371.918 25.7296 371.765 26.1589 371.458 26.5006C371.152 26.8335 370.757 27 370.275 27H364.572V25.3047H369.684C369.807 25.3047 369.868 25.239 369.868 25.1075C369.868 24.4241 369.54 23.7802 368.882 23.1756C368.111 22.4922 367.248 22.1111 366.293 22.0323C366.215 22.0235 366.175 21.9797 366.175 21.9008V20.2581L371.117 17.3931Z" fill="#0F1933"/>
<path d="M33.4536 42.5031C33.6785 42.5031 33.8701 42.5822 34.0284 42.7405C34.1866 42.8988 34.2658 43.0904 34.2658 43.3153C34.2658 43.5319 34.1866 43.7193 34.0284 43.8776C33.8701 44.0359 33.6785 44.115 33.4536 44.115C33.2287 44.115 33.0371 44.0359 32.8788 43.8776C32.7205 43.7193 32.6414 43.5319 32.6414 43.3153C32.6414 43.0904 32.7205 42.8988 32.8788 42.7405C33.0371 42.5822 33.2287 42.5031 33.4536 42.5031ZM35.3529 42.5031C35.5778 42.5031 35.7694 42.5822 35.9277 42.7405C36.0859 42.8988 36.1651 43.0904 36.1651 43.3153C36.1651 43.5319 36.0859 43.7193 35.9277 43.8776C35.7694 44.0359 35.5778 44.115 35.3529 44.115C35.1363 44.115 34.9489 44.0359 34.7906 43.8776C34.6323 43.7193 34.5532 43.5319 34.5532 43.3153C34.5532 43.0904 34.6323 42.8988 34.7906 42.7405C34.9489 42.5822 35.1363 42.5031 35.3529 42.5031ZM36.1651 44.9147V49.4131C36.1651 49.513 36.1942 49.588 36.2526 49.638C36.3025 49.6963 36.3692 49.7255 36.4525 49.7255H36.8024V51H36.0151C35.6319 51 35.2862 50.8459 34.978 50.5377C34.5032 50.9292 33.9742 51.125 33.3911 51.125C32.733 51.125 32.1665 50.9167 31.6917 50.5002C31.0586 49.9087 30.7421 49.1174 30.7421 48.126C30.7421 47.218 31.0336 46.4642 31.6167 45.8644C32.1499 45.3229 32.8038 45.0522 33.5785 45.0522C34.0117 45.0522 34.4449 45.1438 34.8781 45.3271L35.4154 44.9147H36.1651ZM34.6406 46.5266C34.3491 46.4183 34.07 46.3642 33.8034 46.3642C33.3536 46.3642 32.9829 46.5308 32.6914 46.864C32.3998 47.1889 32.254 47.6137 32.254 48.1385C32.254 48.6634 32.3831 49.084 32.6414 49.4006C32.9079 49.7171 33.262 49.8754 33.7035 49.8754C34.0034 49.8754 34.3158 49.8088 34.6406 49.6755V46.5266ZM40.4777 45.2521V49.6255C40.4777 49.9504 40.3694 50.2503 40.1528 50.5252C39.8779 50.8417 39.5364 51 39.1282 51H36.7165V49.7255H38.6408C38.7325 49.7255 38.8116 49.6921 38.8783 49.6255C38.9366 49.5672 38.9657 49.4964 38.9657 49.4131V45.2521H40.4777ZM37.7412 51.9122C37.9661 51.9122 38.1577 51.9913 38.316 52.1496C38.4742 52.3079 38.5534 52.4995 38.5534 52.7244C38.5534 52.9493 38.4742 53.1409 38.316 53.2992C38.1577 53.4574 37.9661 53.5366 37.7412 53.5366C37.5246 53.5366 37.3372 53.4574 37.1789 53.2992C37.0206 53.1409 36.9415 52.9493 36.9415 52.7244C36.9415 52.4995 37.0206 52.3079 37.1789 52.1496C37.3372 51.9913 37.5246 51.9122 37.7412 51.9122ZM39.653 51.9122C39.8779 51.9122 40.0653 51.9913 40.2153 52.1496C40.3735 52.3079 40.4527 52.4995 40.4527 52.7244C40.4527 52.9493 40.3735 53.1409 40.2153 53.2992C40.0653 53.4574 39.8779 53.5366 39.653 53.5366C39.4281 53.5366 39.2365 53.4574 39.0782 53.2992C38.9199 53.1409 38.8408 52.9493 38.8408 52.7244C38.8408 52.4995 38.9199 52.3079 39.0782 52.1496C39.2365 51.9913 39.4281 51.9122 39.653 51.9122ZM43.1038 45.1771C43.387 45.1271 43.716 45.1021 44.0909 45.1021C45.0489 45.1021 45.8236 45.4104 46.4151 46.0268C46.9399 46.5849 47.2023 47.2764 47.2023 48.1011V49.6255C47.2023 50.017 47.0607 50.3461 46.7774 50.6126C46.5192 50.8709 46.211 51 45.8528 51H41.8417V49.7255H45.3654C45.5737 49.7255 45.6778 49.6213 45.6778 49.4131V48.251C45.6778 47.6762 45.5029 47.2139 45.153 46.864C44.8281 46.5391 44.3575 46.3642 43.741 46.3392C43.4578 46.3392 43.2454 46.3559 43.1038 46.3892V45.1771ZM51.4797 51C50.5634 51 49.8428 50.6876 49.318 50.0628C48.8765 49.5297 48.6558 48.8716 48.6558 48.0886C48.6558 47.1556 48.9182 46.4267 49.443 45.9019C49.9928 45.3687 50.6967 45.1021 51.5547 45.1021C52.1795 45.1021 52.7209 45.2563 53.1791 45.5645C53.7789 45.9977 54.0788 46.6141 54.0788 47.4138V49.7255H54.4786V51H54.0663C54.008 51.8997 53.6914 52.6036 53.1166 53.1117C52.7168 53.4699 52.2378 53.7157 51.6797 53.849C51.2881 53.9406 50.9049 53.9864 50.5301 53.9864C50.4051 53.9864 50.226 53.9781 49.9928 53.9614H49.9553L49.318 53.1742V52.6244C49.6596 52.6827 49.9803 52.7119 50.2802 52.7119C51.6463 52.7119 52.3919 52.1413 52.5168 51H51.4797ZM52.5543 47.4138C52.5543 47.0806 52.446 46.8182 52.2295 46.6266C52.0379 46.46 51.8129 46.3767 51.5547 46.3767C51.1299 46.3767 50.7925 46.5266 50.5426 46.8265C50.2927 47.1264 50.1677 47.5388 50.1677 48.0636C50.1677 48.5717 50.3052 48.9757 50.5801 49.2756C50.855 49.5755 51.2298 49.7255 51.7046 49.7255H52.5543V47.4138ZM56.1228 47.4513C56.406 46.6349 56.9225 46.0143 57.6722 45.5895C58.2303 45.2729 58.8343 45.1146 59.484 45.1146C60.1338 45.1146 60.7294 45.2896 61.2709 45.6395C61.9456 46.0476 62.4288 46.6516 62.7204 47.4513L62.5704 47.8012C62.2372 47.9511 61.8873 48.2093 61.5208 48.5759C61.1709 48.9591 60.9418 49.3423 60.8335 49.7255H62.8453V51H60.0963C59.8631 51 59.6506 50.8917 59.459 50.6751H59.3966C59.205 50.8917 58.9842 51 58.7343 51H54.3859V49.7255H58.0096C57.9096 49.3839 57.6972 49.0216 57.3723 48.6384C57.0141 48.2385 56.6434 47.9594 56.2602 47.8012L56.1228 47.4513ZM61.1209 47.3513C60.921 47.0015 60.6503 46.7432 60.3087 46.5766C60.0505 46.4517 59.7631 46.3892 59.4466 46.3892C59.1133 46.3892 58.7968 46.46 58.4969 46.6016C58.1637 46.7682 57.9054 47.0181 57.7222 47.3513C58.0054 47.4763 58.3053 47.7262 58.6219 48.1011C58.9717 48.4926 59.23 48.9174 59.3966 49.3756H59.4466C59.6048 48.9091 59.8756 48.4634 60.2588 48.0386C60.567 47.697 60.8544 47.468 61.1209 47.3513ZM76.0146 45.2521V49.7255H76.6518V51H76.1645L75.7521 50.4877H75.7272C75.4439 50.8292 75.0899 51 74.665 51H71.991L71.5787 50.4877H71.5412C71.2663 50.8292 70.9164 51 70.4916 51H67.805L67.3927 50.4877H67.3552C67.0803 50.8292 66.7304 51 66.3056 51H62.7569V49.7255H65.8183C66.0265 49.7255 66.1306 49.6213 66.1306 49.4131V46.6891H67.6551V49.3381C67.6551 49.513 67.6509 49.6422 67.6426 49.7255H70.0042C70.2125 49.7255 70.3166 49.6213 70.3166 49.4131V45.9643H71.8411V49.3006C71.8411 49.3506 71.8369 49.4256 71.8286 49.5255C71.8286 49.6172 71.8286 49.6838 71.8286 49.7255H74.1777C74.386 49.7255 74.4901 49.6213 74.4901 49.4131V45.2521H76.0146ZM80.3313 42.0533V49.6255C80.3313 49.9754 80.2189 50.2753 79.994 50.5252C79.7357 50.8417 79.3983 51 78.9818 51H76.5702V49.7255H78.4945C78.5861 49.7255 78.6653 49.6921 78.7319 49.6255C78.7902 49.5672 78.8194 49.4964 78.8194 49.4131V42.0533H80.3313ZM83.5825 42.0533V50.6876L82.8078 51.3124H82.0581V42.0533H83.5825ZM90.1346 42.5031C90.3595 42.5031 90.5511 42.5822 90.7094 42.7405C90.8677 42.8988 90.9468 43.0904 90.9468 43.3153C90.9468 43.5319 90.8677 43.7193 90.7094 43.8776C90.5511 44.0359 90.3595 44.115 90.1346 44.115C89.9097 44.115 89.7181 44.0359 89.5598 43.8776C89.4015 43.7193 89.3224 43.5319 89.3224 43.3153C89.3224 43.0904 89.4015 42.8988 89.5598 42.7405C89.7181 42.5822 89.9097 42.5031 90.1346 42.5031ZM92.0339 42.5031C92.2588 42.5031 92.4504 42.5822 92.6087 42.7405C92.767 42.8988 92.8461 43.0904 92.8461 43.3153C92.8461 43.5319 92.767 43.7193 92.6087 43.8776C92.4504 44.0359 92.2588 44.115 92.0339 44.115C91.8173 44.115 91.6299 44.0359 91.4716 43.8776C91.3133 43.7193 91.2342 43.5319 91.2342 43.3153C91.2342 43.0904 91.3133 42.8988 91.4716 42.7405C91.6299 42.5822 91.8173 42.5031 92.0339 42.5031ZM92.8461 44.9147V49.4131C92.8461 49.513 92.8753 49.588 92.9336 49.638C92.9836 49.6963 93.0502 49.7255 93.1335 49.7255H93.4834V51H92.6962C92.313 51 91.9673 50.8459 91.6591 50.5377C91.1842 50.9292 90.6553 51.125 90.0721 51.125C89.414 51.125 88.8476 50.9167 88.3727 50.5002C87.7396 49.9087 87.4231 49.1174 87.4231 48.126C87.4231 47.218 87.7147 46.4642 88.2978 45.8644C88.8309 45.3229 89.4848 45.0522 90.2596 45.0522C90.6927 45.0522 91.1259 45.1438 91.5591 45.3271L92.0964 44.9147H92.8461ZM91.3217 46.5266C91.0301 46.4183 90.751 46.3642 90.4845 46.3642C90.0346 46.3642 89.6639 46.5308 89.3724 46.864C89.0808 47.1889 88.935 47.6137 88.935 48.1385C88.935 48.6634 89.0642 49.084 89.3224 49.4006C89.589 49.7171 89.943 49.8754 90.3845 49.8754C90.6844 49.8754 90.9968 49.8088 91.3217 49.6755V46.5266ZM97.1587 45.2521V49.7255H97.796V51H97.3586L96.8963 50.4877H96.8713C96.5881 50.8292 96.234 51 95.8092 51H93.3976V49.7255H95.2844C95.401 49.7255 95.4843 49.6921 95.5343 49.6255C95.6093 49.5589 95.6468 49.4756 95.6468 49.3756V45.2521H97.1587ZM94.4472 51.9122C94.6721 51.9122 94.8637 51.9913 95.022 52.1496C95.1803 52.3079 95.2594 52.4995 95.2594 52.7244C95.2594 52.9493 95.1803 53.1409 95.022 53.2992C94.8637 53.4574 94.6721 53.5366 94.4472 53.5366C94.2223 53.5366 94.0307 53.4574 93.8724 53.2992C93.7141 53.1409 93.635 52.9493 93.635 52.7244C93.635 52.4995 93.7141 52.3079 93.8724 52.1496C94.0307 51.9913 94.2223 51.9122 94.4472 51.9122ZM96.3465 51.9122C96.5714 51.9122 96.763 51.9913 96.9213 52.1496C97.0796 52.3079 97.1587 52.4995 97.1587 52.7244C97.1587 52.9493 97.0796 53.1409 96.9213 53.2992C96.763 53.4574 96.5714 53.5366 96.3465 53.5366C96.1299 53.5366 95.9425 53.4574 95.7842 53.2992C95.6259 53.1409 95.5468 52.9493 95.5468 52.7244C95.5468 52.4995 95.6259 52.3079 95.7842 52.1496C95.9425 51.9913 96.1299 51.9122 96.3465 51.9122ZM101.466 45.2521V49.6255C101.466 49.9504 101.358 50.2503 101.141 50.5252C100.866 50.8417 100.525 51 100.117 51H97.7051V49.7255H99.6294C99.721 49.7255 99.8002 49.6921 99.8668 49.6255C99.9251 49.5672 99.9543 49.4964 99.9543 49.4131V45.2521H101.466ZM100.429 51.9122C100.654 51.9122 100.846 51.9913 101.004 52.1496C101.162 52.3079 101.241 52.4995 101.241 52.7244C101.241 52.9493 101.162 53.1409 101.004 53.2992C100.846 53.4574 100.654 53.5366 100.429 53.5366C100.204 53.5366 100.013 53.4574 99.8543 53.2992C99.7044 53.1409 99.6294 52.9493 99.6294 52.7244C99.6294 52.4995 99.7044 52.3079 99.8543 52.1496C100.013 51.9913 100.204 51.9122 100.429 51.9122ZM106.692 45.2521V49.7255H107.329V51H106.679C106.613 51.9996 106.217 52.766 105.492 53.2992C104.892 53.7407 104.155 53.9614 103.28 53.9614C103.13 53.9614 102.968 53.9573 102.793 53.9489L102.181 53.1867V52.6494C102.447 52.6911 102.706 52.7119 102.956 52.7119C104.43 52.7119 105.167 51.9955 105.167 50.5627V45.2521H106.692ZM108.984 47.4513C109.268 46.6349 109.784 46.0143 110.534 45.5895C111.092 45.2729 111.696 45.1146 112.346 45.1146C112.995 45.1146 113.591 45.2896 114.133 45.6395C114.807 46.0476 115.29 46.6516 115.582 47.4513L115.432 47.8012C115.099 47.9511 114.749 48.2093 114.382 48.5759C114.033 48.9591 113.803 49.3423 113.695 49.7255H115.707V51H112.958C112.725 51 112.512 50.8917 112.321 50.6751H112.258C112.067 50.8917 111.846 51 111.596 51H107.248V49.7255H110.871C110.771 49.3839 110.559 49.0216 110.234 48.6384C109.876 48.2385 109.505 47.9594 109.122 47.8012L108.984 47.4513ZM113.983 47.3513C113.783 47.0015 113.512 46.7432 113.17 46.5766C112.912 46.4517 112.625 46.3892 112.308 46.3892C111.975 46.3892 111.658 46.46 111.359 46.6016C111.025 46.7682 110.767 47.0181 110.584 47.3513C110.867 47.4763 111.167 47.7262 111.483 48.1011C111.833 48.4926 112.092 48.9174 112.258 49.3756H112.308C112.466 48.9091 112.737 48.4634 113.12 48.0386C113.429 47.697 113.716 47.468 113.983 47.3513ZM119.38 42.0533V49.6255C119.38 49.9754 119.267 50.2753 119.042 50.5252C118.784 50.8417 118.447 51 118.03 51H115.618V49.7255H117.543C117.634 49.7255 117.714 49.6921 117.78 49.6255C117.839 49.5672 117.868 49.4964 117.868 49.4131V42.0533H119.38ZM122.631 42.0533V50.6876L121.856 51.3124H121.106V42.0533H122.631ZM129.183 42.5031C129.408 42.5031 129.599 42.5822 129.758 42.7405C129.916 42.8988 129.995 43.0904 129.995 43.3153C129.995 43.5319 129.916 43.7193 129.758 43.8776C129.599 44.0359 129.408 44.115 129.183 44.115C128.958 44.115 128.766 44.0359 128.608 43.8776C128.45 43.7193 128.371 43.5319 128.371 43.3153C128.371 43.0904 128.45 42.8988 128.608 42.7405C128.766 42.5822 128.958 42.5031 129.183 42.5031ZM131.082 42.5031C131.307 42.5031 131.499 42.5822 131.657 42.7405C131.815 42.8988 131.894 43.0904 131.894 43.3153C131.894 43.5319 131.815 43.7193 131.657 43.8776C131.499 44.0359 131.307 44.115 131.082 44.115C130.866 44.115 130.678 44.0359 130.52 43.8776C130.362 43.7193 130.282 43.5319 130.282 43.3153C130.282 43.0904 130.362 42.8988 130.52 42.7405C130.678 42.5822 130.866 42.5031 131.082 42.5031ZM131.894 44.9147V49.4131C131.894 49.513 131.924 49.588 131.982 49.638C132.032 49.6963 132.099 49.7255 132.182 49.7255H132.532V51H131.744C131.361 51 131.016 50.8459 130.707 50.5377C130.233 50.9292 129.704 51.125 129.12 51.125C128.462 51.125 127.896 50.9167 127.421 50.5002C126.788 49.9087 126.471 49.1174 126.471 48.126C126.471 47.218 126.763 46.4642 127.346 45.8644C127.879 45.3229 128.533 45.0522 129.308 45.0522C129.741 45.0522 130.174 45.1438 130.607 45.3271L131.145 44.9147H131.894ZM130.37 46.5266C130.078 46.4183 129.799 46.3642 129.533 46.3642C129.083 46.3642 128.712 46.5308 128.421 46.864C128.129 47.1889 127.983 47.6137 127.983 48.1385C127.983 48.6634 128.112 49.084 128.371 49.4006C128.637 49.7171 128.991 49.8754 129.433 49.8754C129.733 49.8754 130.045 49.8088 130.37 49.6755V46.5266ZM138.406 41.8783V43.2903L135.795 44.8897C136.894 45.2729 137.761 45.9227 138.394 46.839C138.96 47.6554 139.243 48.5592 139.243 49.5505V49.7255H139.643V51H139.406L138.981 50.4877H138.956C138.664 50.8292 138.31 51 137.894 51H132.446V49.7255H137.407C137.623 49.7255 137.731 49.6172 137.731 49.4006C137.673 48.6925 137.419 48.0427 136.969 47.4513C136.269 46.5766 135.299 46.0768 134.058 45.9518C133.999 45.9518 133.97 45.9185 133.97 45.8519V44.4399L138.406 41.8783ZM143.321 42.0533V49.7255H143.958V51H143.534L143.059 50.4877H143.034C142.75 50.8292 142.396 51 141.972 51H139.56V49.7255H141.484C141.584 49.7255 141.668 49.6921 141.734 49.6255C141.784 49.5422 141.809 49.4714 141.809 49.4131V42.0533H143.321ZM146.092 49.7255C145.892 49.2423 145.792 48.7008 145.792 48.1011C145.792 47.1181 146.096 46.3559 146.704 45.8144C147.212 45.3562 147.862 45.123 148.653 45.1146C149.361 45.1146 149.94 45.2812 150.39 45.6145C150.94 46.031 151.215 46.6308 151.215 47.4138V49.4131C151.215 49.4881 151.236 49.5589 151.277 49.6255C151.344 49.6921 151.419 49.7255 151.502 49.7255H151.615V51H151.065C150.69 51 150.369 50.8667 150.103 50.6001C149.695 51.1166 149.153 51.3749 148.478 51.3749C147.754 51.3749 147.137 51.1083 146.629 50.5752H146.604L146.254 51H143.867V49.7255H146.092ZM149.69 47.4138C149.69 47.1056 149.595 46.8557 149.403 46.6641C149.228 46.4725 148.978 46.3767 148.653 46.3767C148.245 46.3767 147.916 46.535 147.666 46.8515C147.425 47.1681 147.304 47.5929 147.304 48.126C147.304 48.7092 147.429 49.184 147.679 49.5505C147.929 49.9171 148.249 50.1003 148.641 50.1003C148.999 50.1003 149.349 49.9296 149.69 49.588V47.4138ZM153.755 49.7255C153.555 49.2423 153.455 48.7008 153.455 48.1011C153.455 47.1181 153.759 46.3559 154.367 45.8144C154.875 45.3562 155.525 45.123 156.316 45.1146C157.025 45.1146 157.604 45.2812 158.053 45.6145C158.603 46.031 158.878 46.6308 158.878 47.4138V49.4131C158.878 49.4881 158.899 49.5589 158.941 49.6255C159.007 49.6921 159.082 49.7255 159.165 49.7255H159.278V51H158.728C158.353 51 158.033 50.8667 157.766 50.6001C157.358 51.1166 156.816 51.3749 156.142 51.3749C155.417 51.3749 154.8 51.1083 154.292 50.5752H154.267L153.917 51H151.531V49.7255H153.755ZM157.354 47.4138C157.354 47.1056 157.258 46.8557 157.066 46.6641C156.891 46.4725 156.641 46.3767 156.316 46.3767C155.908 46.3767 155.579 46.535 155.329 46.8515C155.088 47.1681 154.967 47.5929 154.967 48.126C154.967 48.7092 155.092 49.184 155.342 49.5505C155.592 49.9171 155.912 50.1003 156.304 50.1003C156.662 50.1003 157.012 49.9296 157.354 49.588V47.4138ZM162.955 42.0533V49.6255C162.955 49.9754 162.843 50.2753 162.618 50.5252C162.359 50.8417 162.022 51 161.606 51H159.194V49.7255H161.118C161.21 49.7255 161.289 49.6921 161.356 49.6255C161.414 49.5672 161.443 49.4964 161.443 49.4131V42.0533H162.955ZM166.206 42.0533V49.4131C166.206 49.4964 166.231 49.563 166.281 49.613C166.331 49.688 166.41 49.7255 166.519 49.7255H166.844V51H166.031C165.69 51 165.39 50.8792 165.132 50.6376C164.832 50.3627 164.682 50.0254 164.682 49.6255V42.0533H166.206ZM170.521 45.2521V49.6255C170.521 49.9504 170.412 50.2503 170.196 50.5252C169.921 50.8417 169.579 51 169.171 51H166.76V49.7255H168.684C168.775 49.7255 168.855 49.6921 168.921 49.6255C168.98 49.5672 169.009 49.4964 169.009 49.4131V45.2521H170.521ZM169.484 51.9122C169.708 51.9122 169.9 51.9913 170.058 52.1496C170.217 52.3079 170.296 52.4995 170.296 52.7244C170.296 52.9493 170.217 53.1409 170.058 53.2992C169.9 53.4574 169.708 53.5366 169.484 53.5366C169.259 53.5366 169.067 53.4574 168.909 53.2992C168.759 53.1409 168.684 52.9493 168.684 52.7244C168.684 52.4995 168.759 52.3079 168.909 52.1496C169.067 51.9913 169.259 51.9122 169.484 51.9122ZM182.863 47.3513C183.971 45.8435 185.35 45.0897 186.999 45.0897C187.999 45.0897 188.824 45.4062 189.474 46.0393C190.065 46.6058 190.361 47.318 190.361 48.176V49.6255C190.361 50.017 190.219 50.3461 189.936 50.6126C189.661 50.8709 189.353 51 189.011 51H182.863C182.797 52.0246 182.389 52.7993 181.639 53.3242C181.031 53.7657 180.26 53.9864 179.327 53.9864H178.09C176.899 53.9864 175.987 53.6449 175.354 52.9618C174.812 52.4037 174.541 51.6498 174.541 50.7001V48.4634L175.316 47.8387H176.066V50.5627C176.066 51.354 176.262 51.908 176.653 52.2246C177.053 52.5494 177.74 52.7119 178.715 52.7119C179.656 52.7119 180.319 52.5661 180.702 52.2745C181.135 51.9413 181.352 51.3707 181.352 50.5627V45.2521H182.876L182.863 47.3513ZM188.836 48.251C188.836 47.7512 188.666 47.3305 188.324 46.989C187.916 46.5974 187.395 46.4017 186.762 46.4017C186.121 46.4017 185.504 46.6058 184.913 47.014C184.071 47.5887 183.388 48.4926 182.863 49.7255H188.524C188.732 49.7255 188.836 49.6213 188.836 49.4131V48.251ZM193.43 42.0533V49.4131C193.43 49.4964 193.455 49.563 193.505 49.613C193.555 49.688 193.634 49.7255 193.743 49.7255H194.067V51H193.255C192.914 51 192.614 50.8792 192.356 50.6376C192.056 50.3627 191.906 50.0254 191.906 49.6255V42.0533H193.43ZM197.92 42.5031C198.145 42.5031 198.336 42.5822 198.494 42.7405C198.653 42.8988 198.732 43.0904 198.732 43.3153C198.732 43.5319 198.653 43.7193 198.494 43.8776C198.336 44.0359 198.145 44.115 197.92 44.115C197.703 44.115 197.516 44.0359 197.357 43.8776C197.199 43.7193 197.12 43.5319 197.12 43.3153C197.12 43.0904 197.199 42.8988 197.357 42.7405C197.516 42.5822 197.703 42.5031 197.92 42.5031ZM195.633 45.4645C196.424 45.2229 197.145 45.1021 197.795 45.1021C198.803 45.1021 199.615 45.4187 200.231 46.0518C200.789 46.6183 201.068 47.3347 201.068 48.201V49.7255H201.481V51H201.218L200.806 50.4877H200.781C200.498 50.8292 200.144 51 199.719 51H193.971V49.7255H199.232C199.44 49.7255 199.544 49.6213 199.544 49.4131V48.2885C199.544 47.722 199.352 47.268 198.969 46.9265C198.594 46.5766 198.099 46.4017 197.482 46.4017C197.074 46.4017 196.458 46.4933 195.633 46.6766V45.4645ZM205.152 42.0533V49.6255C205.152 49.9754 205.039 50.2753 204.814 50.5252C204.556 50.8417 204.219 51 203.802 51H201.391V49.7255H203.315C203.406 49.7255 203.486 49.6921 203.552 49.6255C203.611 49.5672 203.64 49.4964 203.64 49.4131V42.0533H205.152ZM208.403 42.0533V50.6876L207.628 51.3124H206.878V42.0533H208.403ZM213.88 45.4645C214.647 45.2229 215.317 45.1021 215.892 45.1021C216.883 45.1021 217.691 45.4229 218.316 46.0643C218.866 46.6391 219.141 47.3513 219.141 48.201V49.6255C219.141 50.0087 219.008 50.3336 218.741 50.6001C218.474 50.8667 218.158 51 217.791 51H215.517C214.792 51 214.288 51.2374 214.005 51.7122C213.847 51.9538 213.768 52.2579 213.768 52.6244C213.768 53.8406 214.572 54.4487 216.179 54.4487C216.646 54.4487 217.133 54.3779 217.641 54.2363V54.7611L217.004 55.5483C216.679 55.6483 216.275 55.7066 215.792 55.7233C214.867 55.7233 214.097 55.5067 213.48 55.0735C212.656 54.5154 212.243 53.6824 212.243 52.5744C212.243 51.808 212.452 51.1958 212.868 50.7376C213.46 50.0628 214.397 49.7255 215.68 49.7255H217.304C217.512 49.7255 217.616 49.6213 217.616 49.4131V48.2885C217.616 47.7137 217.429 47.2597 217.054 46.9265C216.688 46.5849 216.188 46.4142 215.555 46.4142C215.146 46.4142 214.588 46.5016 213.88 46.6766V45.4645ZM216.055 51.9122C216.279 51.9122 216.471 51.9913 216.629 52.1496C216.788 52.3079 216.867 52.4995 216.867 52.7244C216.867 52.9493 216.788 53.1409 216.629 53.2992C216.471 53.4574 216.279 53.5366 216.055 53.5366C215.83 53.5366 215.638 53.4574 215.48 53.2992C215.321 53.1409 215.242 52.9493 215.242 52.7244C215.242 52.4995 215.321 52.3079 215.48 52.1496C215.638 51.9913 215.83 51.9122 216.055 51.9122ZM223.353 51C222.437 51 221.716 50.6876 221.192 50.0628C220.75 49.5297 220.529 48.8716 220.529 48.0886C220.529 47.1556 220.792 46.4267 221.316 45.9019C221.866 45.3687 222.57 45.1021 223.428 45.1021C224.053 45.1021 224.594 45.2563 225.053 45.5645C225.652 45.9977 225.952 46.6141 225.952 47.4138V49.7255H226.352V51H225.94C225.881 51.8997 225.565 52.6036 224.99 53.1117C224.59 53.4699 224.111 53.7157 223.553 53.849C223.162 53.9406 222.778 53.9864 222.404 53.9864C222.279 53.9864 222.1 53.9781 221.866 53.9614H221.829L221.192 53.1742V52.6244C221.533 52.6827 221.854 52.7119 222.154 52.7119C223.52 52.7119 224.265 52.1413 224.39 51H223.353ZM224.428 47.4138C224.428 47.0806 224.32 46.8182 224.103 46.6266C223.911 46.46 223.686 46.3767 223.428 46.3767C223.003 46.3767 222.666 46.5266 222.416 46.8265C222.166 47.1264 222.041 47.5388 222.041 48.0636C222.041 48.5717 222.179 48.9757 222.454 49.2756C222.728 49.5755 223.103 49.7255 223.578 49.7255H224.428V47.4138ZM230.021 42.0533V49.6255C230.021 49.9754 229.908 50.2753 229.683 50.5252C229.425 50.8417 229.088 51 228.671 51H226.259V49.7255H228.184C228.275 49.7255 228.354 49.6921 228.421 49.6255C228.479 49.5672 228.509 49.4964 228.509 49.4131V42.0533H230.021ZM233.272 42.0533V49.4131C233.272 49.4964 233.297 49.563 233.347 49.613C233.397 49.688 233.476 49.7255 233.584 49.7255H233.909V51H233.097C232.755 51 232.455 50.8792 232.197 50.6376C231.897 50.3627 231.747 50.0254 231.747 49.6255V42.0533H233.272ZM235.037 42.5031C235.262 42.5031 235.454 42.5822 235.612 42.7405C235.77 42.8988 235.849 43.0904 235.849 43.3153C235.849 43.5319 235.77 43.7193 235.612 43.8776C235.454 44.0359 235.262 44.115 235.037 44.115C234.812 44.115 234.621 44.0359 234.462 43.8776C234.304 43.7193 234.225 43.5319 234.225 43.3153C234.225 43.0904 234.304 42.8988 234.462 42.7405C234.621 42.5822 234.812 42.5031 235.037 42.5031ZM236.936 42.5031C237.161 42.5031 237.353 42.5822 237.511 42.7405C237.669 42.8988 237.749 43.0904 237.749 43.3153C237.749 43.5319 237.669 43.7193 237.511 43.8776C237.353 44.0359 237.161 44.115 236.936 44.115C236.72 44.115 236.532 44.0359 236.374 43.8776C236.216 43.7193 236.137 43.5319 236.137 43.3153C236.137 43.0904 236.216 42.8988 236.374 42.7405C236.532 42.5822 236.72 42.5031 236.936 42.5031ZM237.586 45.2521V49.7255H238.223V51H237.786L237.324 50.4877H237.299C237.015 50.8292 236.661 51 236.237 51H233.825V49.7255H235.712C235.828 49.7255 235.912 49.6921 235.962 49.6255C236.037 49.5589 236.074 49.4756 236.074 49.3756V45.2521H237.586ZM244.093 41.8783V43.2903L241.481 44.8897C242.581 45.2729 243.447 45.9227 244.08 46.839C244.647 47.6554 244.93 48.5592 244.93 49.5505V49.7255H245.33V51H245.092L244.668 50.4877H244.643C244.351 50.8292 243.997 51 243.581 51H238.133V49.7255H243.093C243.31 49.7255 243.418 49.6172 243.418 49.4006C243.36 48.6925 243.106 48.0427 242.656 47.4513C241.956 46.5766 240.986 46.0768 239.744 45.9518C239.686 45.9518 239.657 45.9185 239.657 45.8519V44.4399L244.093 41.8783ZM249.008 42.0533V49.6255C249.008 49.9754 248.895 50.2753 248.67 50.5252C248.412 50.8417 248.075 51 247.658 51H245.247V49.7255H247.171C247.263 49.7255 247.342 49.6921 247.408 49.6255C247.467 49.5672 247.496 49.4964 247.496 49.4131V42.0533H249.008ZM252.259 42.0533V50.6876L251.484 51.3124H250.734V42.0533H252.259ZM257.174 45.1771C257.457 45.1271 257.786 45.1021 258.161 45.1021C259.119 45.1021 259.894 45.4104 260.485 46.0268C261.01 46.5849 261.273 47.2764 261.273 48.1011V49.3006C261.273 49.4922 261.268 49.6338 261.26 49.7255H261.585V51H261.423L261.01 50.4877H260.973C260.906 50.5627 260.835 50.6335 260.76 50.7001C260.51 50.9 260.231 51 259.923 51H255.912V49.7255H259.436C259.644 49.7255 259.748 49.6213 259.748 49.4131V48.251C259.748 47.6762 259.573 47.2139 259.223 46.864C258.898 46.5391 258.428 46.3642 257.811 46.3392C257.528 46.3392 257.316 46.3559 257.174 46.3892V45.1771ZM264.537 45.3895C265.487 44.973 266.415 44.7648 267.323 44.7648C268.498 44.7648 269.393 45.1313 270.01 45.8644C270.535 46.4975 270.797 47.3347 270.797 48.376V49.6255C270.797 50.0004 270.655 50.3294 270.372 50.6126C270.114 50.8709 269.806 51 269.448 51H266.411C265.978 51 265.67 50.9542 265.487 50.8626H265.437C265.253 50.9542 264.945 51 264.512 51H261.488V49.7255H263.737C263.596 49.5255 263.491 49.3131 263.425 49.0882C263.341 48.8466 263.3 48.5759 263.3 48.276C263.3 47.7762 263.425 47.3347 263.675 46.9515C263.883 46.6433 264.17 46.41 264.537 46.2517V45.3895ZM269.273 48.5759C269.273 47.6429 269.069 46.9681 268.66 46.5516C268.277 46.1684 267.694 45.9768 266.911 45.9768C266.553 45.9768 266.182 46.0185 265.799 46.1018C266.332 46.1768 266.765 46.4017 267.098 46.7765C267.448 47.1681 267.623 47.6679 267.623 48.276C267.623 48.5509 267.586 48.8091 267.511 49.0507C267.436 49.3089 267.332 49.5339 267.198 49.7255H268.948C269.039 49.7255 269.114 49.7005 269.173 49.6505C269.239 49.5838 269.273 49.5047 269.273 49.4131V48.5759ZM265.449 49.5755C265.741 49.5422 265.961 49.4131 266.111 49.1882C266.261 48.9716 266.345 48.6842 266.361 48.326C266.361 47.9261 266.27 47.6221 266.086 47.4138C265.911 47.2139 265.699 47.1139 265.449 47.1139C265.116 47.1139 264.866 47.2639 264.699 47.5638C264.583 47.7803 264.524 48.0344 264.524 48.326C264.541 48.6592 264.616 48.9341 264.749 49.1507C264.916 49.4006 265.149 49.5422 265.449 49.5755ZM273.87 42.0533V49.4131C273.87 49.4964 273.895 49.563 273.945 49.613C273.995 49.688 274.074 49.7255 274.182 49.7255H274.507V51H273.695C273.353 51 273.053 50.8792 272.795 50.6376C272.495 50.3627 272.345 50.0254 272.345 49.6255V42.0533H273.87ZM282.757 41.0036C282.966 41.0036 283.141 41.0786 283.282 41.2286C283.424 41.3702 283.495 41.5451 283.495 41.7534C283.495 41.9616 283.424 42.1366 283.282 42.2782C283.141 42.4198 282.966 42.4906 282.757 42.4906C282.549 42.4906 282.37 42.4198 282.22 42.2782C282.079 42.1366 282.008 41.9616 282.008 41.7534C282.008 41.5451 282.079 41.3702 282.22 41.2286C282.37 41.0786 282.549 41.0036 282.757 41.0036ZM281.808 42.5031C282.033 42.5031 282.22 42.5822 282.37 42.7405C282.528 42.8988 282.608 43.0904 282.608 43.3153C282.608 43.5402 282.528 43.7318 282.37 43.8901C282.22 44.04 282.033 44.115 281.808 44.115C281.583 44.115 281.391 44.04 281.233 43.8901C281.083 43.7318 281.008 43.5402 281.008 43.3153C281.008 43.0904 281.083 42.8988 281.233 42.7405C281.391 42.5822 281.583 42.5031 281.808 42.5031ZM283.695 42.5031C283.92 42.5031 284.111 42.5822 284.269 42.7405C284.428 42.8988 284.507 43.0904 284.507 43.3153C284.507 43.5319 284.428 43.7193 284.269 43.8776C284.111 44.0359 283.92 44.115 283.695 44.115C283.478 44.115 283.291 44.0359 283.132 43.8776C282.974 43.7193 282.895 43.5319 282.895 43.3153C282.895 43.0904 282.974 42.8988 283.132 42.7405C283.291 42.5822 283.478 42.5031 283.695 42.5031ZM287.681 45.2521V49.7255H288.318V51H287.831L287.418 50.4877H287.393C287.11 50.8292 286.756 51 286.331 51H283.657L283.245 50.4877H283.207C282.932 50.8292 282.583 51 282.158 51H279.471L279.059 50.4877H279.021C278.746 50.8292 278.397 51 277.972 51H274.423V49.7255H277.484C277.693 49.7255 277.797 49.6213 277.797 49.4131V46.6891H279.321V49.3381C279.321 49.513 279.317 49.6422 279.309 49.7255H281.67C281.879 49.7255 281.983 49.6213 281.983 49.4131V45.9643H283.507V49.3006C283.507 49.3506 283.503 49.4256 283.495 49.5255C283.495 49.6172 283.495 49.6838 283.495 49.7255H285.844C286.052 49.7255 286.156 49.6213 286.156 49.4131V45.2521H287.681ZM289.436 42.5031C289.661 42.5031 289.852 42.5822 290.011 42.7405C290.169 42.8988 290.248 43.0904 290.248 43.3153C290.248 43.5319 290.169 43.7193 290.011 43.8776C289.852 44.0359 289.661 44.115 289.436 44.115C289.211 44.115 289.019 44.0359 288.861 43.8776C288.703 43.7193 288.624 43.5319 288.624 43.3153C288.624 43.0904 288.703 42.8988 288.861 42.7405C289.019 42.5822 289.211 42.5031 289.436 42.5031ZM291.335 42.5031C291.56 42.5031 291.752 42.5822 291.91 42.7405C292.068 42.8988 292.147 43.0904 292.147 43.3153C292.147 43.5319 292.068 43.7193 291.91 43.8776C291.752 44.0359 291.56 44.115 291.335 44.115C291.119 44.115 290.931 44.0359 290.773 43.8776C290.615 43.7193 290.536 43.5319 290.536 43.3153C290.536 43.0904 290.615 42.8988 290.773 42.7405C290.931 42.5822 291.119 42.5031 291.335 42.5031ZM291.985 45.2521V49.6255C291.985 49.9504 291.877 50.2503 291.66 50.5252C291.385 50.8417 291.044 51 290.635 51H288.224V49.7255H290.148C290.24 49.7255 290.319 49.6921 290.386 49.6255C290.444 49.5672 290.473 49.4964 290.473 49.4131V45.2521H291.985ZM300.251 45.1021C300.476 45.1021 300.667 45.1813 300.826 45.3396C300.984 45.4978 301.063 45.6894 301.063 45.9144C301.063 46.1393 300.984 46.3309 300.826 46.4891C300.667 46.6474 300.476 46.7266 300.251 46.7266C300.034 46.7266 299.847 46.6474 299.688 46.4891C299.53 46.3309 299.451 46.1393 299.451 45.9144C299.451 45.6894 299.53 45.4978 299.688 45.3396C299.847 45.1813 300.034 45.1021 300.251 45.1021ZM304.499 45.2521V50.7001C304.499 51.7331 304.178 52.5369 303.537 53.1117C302.896 53.6949 302.033 53.9864 300.95 53.9864H299.713C298.564 53.9864 297.668 53.6657 297.027 53.0243C296.452 52.4495 296.165 51.6748 296.165 50.7001V48.4634L296.939 47.8387H297.689V50.5627C297.689 51.3457 297.889 51.8997 298.289 52.2246C298.689 52.5494 299.372 52.7119 300.338 52.7119C301.271 52.7119 301.933 52.5619 302.325 52.262C302.758 51.9288 302.975 51.3624 302.975 50.5627V45.2521H304.499ZM312.78 42.0533V49.6255C312.78 49.9837 312.663 50.2878 312.43 50.5377C312.163 50.8459 311.83 51 311.43 51H306.42L305.795 50.2253V49.7255H308.831L306.769 43.5902H308.194L310.268 49.7255H310.943C311.043 49.7255 311.126 49.6921 311.193 49.6255C311.234 49.5589 311.255 49.4881 311.255 49.4131V42.0533H312.78ZM316.03 42.0533V50.6876L315.255 51.3124H314.505V42.0533H316.03ZM324.369 44.9147C324.594 44.9147 324.785 44.9939 324.943 45.1521C325.102 45.3104 325.181 45.502 325.181 45.7269C325.181 45.9518 325.102 46.1434 324.943 46.3017C324.785 46.46 324.594 46.5391 324.369 46.5391C324.152 46.5391 323.965 46.46 323.806 46.3017C323.648 46.1434 323.569 45.9518 323.569 45.7269C323.569 45.502 323.648 45.3104 323.806 45.1521C323.965 44.9939 324.152 44.9147 324.369 44.9147ZM326.28 44.9147C326.497 44.9147 326.684 44.9939 326.843 45.1521C327.001 45.3104 327.08 45.502 327.08 45.7269C327.08 45.9518 327.001 46.1434 326.843 46.3017C326.684 46.46 326.497 46.5391 326.28 46.5391C326.055 46.5391 325.864 46.46 325.706 46.3017C325.547 46.1434 325.468 45.9518 325.468 45.7269C325.468 45.502 325.547 45.3104 325.706 45.1521C325.864 44.9939 326.055 44.9147 326.28 44.9147ZM330.579 45.2521V49.538C330.579 49.6213 330.575 49.6838 330.566 49.7255H331.216V51H330.791L330.316 50.4877H330.279C330.021 50.8292 329.671 51 329.229 51H322.232C321.699 51 321.236 50.8292 320.845 50.4877C320.312 50.0462 320.045 49.4672 320.045 48.7508V46.7765L320.82 46.1518H321.57V48.7508C321.57 49.0424 321.67 49.2798 321.87 49.4631C322.061 49.638 322.282 49.7255 322.532 49.7255H328.705C328.813 49.7255 328.904 49.688 328.979 49.613C329.029 49.5464 329.054 49.4672 329.054 49.3756V45.2521H330.579ZM334.127 42.5031C334.352 42.5031 334.544 42.5822 334.702 42.7405C334.86 42.8988 334.94 43.0904 334.94 43.3153C334.94 43.5319 334.86 43.7193 334.702 43.8776C334.544 44.0359 334.352 44.115 334.127 44.115C333.911 44.115 333.723 44.0359 333.565 43.8776C333.407 43.7193 333.328 43.5319 333.328 43.3153C333.328 43.0904 333.407 42.8988 333.565 42.7405C333.723 42.5822 333.911 42.5031 334.127 42.5031ZM334.89 45.2521V49.6255C334.89 49.9504 334.781 50.2503 334.565 50.5252C334.29 50.8417 333.948 51 333.54 51H331.128V49.7255H333.053C333.144 49.7255 333.224 49.6921 333.29 49.6255C333.348 49.5672 333.378 49.4964 333.378 49.4131V45.2521H334.89ZM338.141 42.0533V50.6876L337.366 51.3124H336.616V42.0533H338.141Z" fill="#AAAAAA"/>
<path d="M370.737 56.0123H348.922C347.86 56.0123 347 55.1417 347 54.0676V40.9447C347 39.8707 347.86 39 348.922 39H370.737C371.798 39 372.658 39.8706 372.658 40.9447V54.0677C372.658 55.1417 371.798 56.0123 370.737 56.0123Z" fill="#73AF00"/>
<path d="M351.912 44.156C351.936 44.4511 352.027 44.5437 352.106 44.5316C352.2 44.5174 352.282 44.3502 352.282 44.1736V43.1611C352.282 43.1104 352.303 43.069 352.329 43.069C352.355 43.069 352.377 43.1103 352.377 43.1611V44.1779C352.377 44.3002 352.408 44.4142 352.46 44.4827C352.491 44.5246 352.528 44.5461 352.565 44.5461C352.589 44.5461 352.613 44.5373 352.635 44.5197L352.682 44.4829C352.687 45.3329 352.66 46.0799 352.66 46.0936C352.656 46.195 352.695 46.2831 352.747 46.2903C352.75 46.2907 352.752 46.2908 352.754 46.2908C352.803 46.2908 352.845 46.2168 352.848 46.1198C352.85 46.06 352.879 45.2419 352.871 44.336L352.899 44.3138C352.924 44.2944 352.952 44.2967 352.976 44.3201C353.08 44.4212 353.205 44.3818 353.287 44.2215L353.304 44.1884C353.38 44.0394 353.407 43.8229 353.373 43.6232L353.292 43.1529C353.336 43.1784 353.383 43.1408 353.404 43.0592C353.428 42.9683 353.409 42.8577 353.362 42.8122L353.174 42.6281C353.139 42.5946 353.098 42.6049 353.07 42.6536C353.041 42.7025 353.03 42.7803 353.042 42.851L353.194 43.7397C353.205 43.8062 353.196 43.8785 353.171 43.9281L353.154 43.9612C353.129 44.0092 353.092 44.0209 353.061 43.9907C352.999 43.9311 352.93 43.9199 352.864 43.9524C352.851 43.3615 352.819 42.773 352.749 42.3662C352.733 42.2698 352.679 42.2175 352.63 42.2499C352.58 42.2819 352.554 42.3861 352.57 42.4827C352.638 42.8805 352.668 43.4868 352.678 44.0896L352.565 44.1778V43.1609C352.565 42.907 352.46 42.7006 352.33 42.7006C352.199 42.7006 352.094 42.907 352.094 43.1609V44.0521L351.997 43.1244C351.987 43.0246 351.937 42.9595 351.886 42.9804C351.835 43.0007 351.802 43.0978 351.813 43.1974L351.912 44.156Z" fill="#F5F5F5"/>
<path d="M353.067 45.504L351.922 45.9901C351.813 46.0361 351.778 46.1356 351.843 46.2124C351.886 46.263 351.962 46.291 352.04 46.291C352.08 46.291 352.121 46.2836 352.158 46.2679L353.303 45.7818C353.412 45.7358 353.447 45.6363 353.382 45.5595C353.316 45.4828 353.176 45.458 353.067 45.504Z" fill="#F5F5F5"/>
<path d="M355.279 45.6927L355.283 45.6893C355.297 45.7626 355.321 45.8336 355.36 45.8932C355.428 45.997 355.53 46.0492 355.645 46.0369C355.808 46.0214 355.919 45.9246 355.992 45.7995C356.003 45.8095 356.015 45.8186 356.027 45.8267C356.117 45.8858 356.222 45.8813 356.321 45.8143C356.573 45.6455 356.627 45.2548 356.62 45.0505C356.615 44.9314 356.537 44.8474 356.446 44.845C356.354 44.8501 356.283 44.9512 356.286 45.0703C356.286 45.073 356.29 45.3305 356.169 45.4261C356.149 45.3903 356.126 45.3097 356.117 45.2432C356.103 45.1315 356.024 45.0537 355.939 45.0627C355.853 45.0715 355.786 45.166 355.786 45.279C355.786 45.3105 355.78 45.589 355.615 45.6122C355.596 45.5781 355.595 45.4345 355.614 45.3283C355.63 45.2412 355.603 45.1503 355.547 45.0994C355.49 45.0484 355.415 45.0484 355.358 45.0986L355.265 45.181C355.221 43.9227 355.119 42.4565 355.118 42.4377C355.109 42.3186 355.029 42.2298 354.936 42.2413C354.845 42.2521 354.777 42.3576 354.785 42.4772C354.787 42.4973 354.905 44.1937 354.941 45.4892C354.932 45.4998 354.923 45.5113 354.915 45.5214C354.849 45.3051 354.718 45.1688 354.55 45.1481C354.312 45.1208 354.055 45.3311 353.962 45.6316C353.883 45.8901 353.933 46.1442 354.09 46.2787C354.203 46.3756 354.373 46.4061 354.587 46.3084C354.535 46.5474 354.44 46.7898 354.316 46.9773C354.205 47.1454 354.02 47.3392 353.783 47.3306C353.645 47.3235 353.539 47.2649 353.459 47.1509C353.266 46.8765 353.282 46.3799 353.282 46.3746C353.287 46.255 353.217 46.1532 353.125 46.1465C353.032 46.1338 352.954 46.2315 352.949 46.3512C352.948 46.3787 352.924 47.0315 353.211 47.4419C353.353 47.6442 353.541 47.7525 353.77 47.7642C353.781 47.7648 353.792 47.765 353.803 47.765C354.082 47.765 354.353 47.587 354.569 47.26C354.772 46.9528 354.91 46.5354 354.951 46.1479C354.951 46.8902 354.607 47.7273 354.15 48.0961C353.957 48.2525 353.655 48.3936 353.315 48.1756C352.895 47.9065 352.945 47.2833 352.948 47.2579C352.959 47.139 352.894 47.0305 352.803 47.0157C352.712 47.0013 352.628 47.085 352.616 47.2041C352.613 47.2428 352.533 48.1576 353.167 48.5646C353.33 48.6692 353.5 48.7212 353.672 48.7212C353.893 48.7212 354.116 48.6354 354.327 48.4646C354.882 48.0158 355.285 47.0407 355.285 46.1461C355.285 46.0062 355.283 45.8534 355.279 45.6927ZM354.273 45.9164C354.243 45.8907 354.267 45.8088 354.272 45.7925C354.307 45.6781 354.417 45.5791 354.505 45.5791C354.509 45.5791 354.514 45.5793 354.518 45.5799C354.539 45.5825 354.596 45.5895 354.62 45.7533C354.623 45.7707 354.625 45.7884 354.627 45.8067C354.441 45.9486 354.316 45.9531 354.273 45.9164Z" fill="#F5F5F5"/>
<path d="M352.52 47.7426C352.431 47.6449 352.316 47.7008 352.264 47.867C352.255 47.894 352.244 47.9235 352.232 47.9502C352.23 47.9413 352.228 47.9317 352.226 47.9213C352.148 47.5311 352.203 46.9301 352.232 46.7313C352.258 46.5442 352.198 46.3525 352.099 46.3024C351.999 46.2544 351.896 46.3633 351.87 46.5504C351.856 46.6453 351.741 47.4969 351.875 48.1676C351.961 48.5965 352.093 48.7048 352.189 48.7194C352.197 48.7207 352.206 48.7214 352.214 48.7214C352.416 48.7214 352.55 48.3409 352.587 48.2202C352.639 48.0533 352.609 47.8406 352.52 47.7426Z" fill="#F5F5F5"/>
<path d="M355.217 43.8605C355.26 43.8605 355.304 43.8479 355.34 43.822L356.346 43.1094C356.359 43.0996 356.368 43.0867 356.378 43.0746C356.523 42.9957 356.621 42.8538 356.621 42.6903C356.621 42.4421 356.398 42.2402 356.123 42.2402C355.848 42.2402 355.624 42.4421 355.624 42.6903C355.624 42.8293 355.696 42.952 355.805 43.0346L355.094 43.539C355.007 43.6003 354.992 43.7135 355.06 43.7916C355.1 43.8369 355.158 43.8605 355.217 43.8605ZM356.123 42.6003C356.178 42.6003 356.222 42.6407 356.222 42.6903C356.222 42.7399 356.178 42.7803 356.123 42.7803C356.068 42.7803 356.023 42.7399 356.023 42.6903C356.023 42.6407 356.068 42.6003 356.123 42.6003Z" fill="#F5F5F5"/>
<path d="M356.105 43.8709C356.004 43.837 355.895 43.8917 355.861 43.9926C355.841 44.0543 355.748 44.3723 355.937 44.561C356.01 44.6344 356.106 44.6711 356.224 44.6709C356.303 44.6709 356.392 44.6548 356.49 44.6218C356.591 44.5883 356.646 44.4792 356.612 44.3781C356.579 44.2772 356.47 44.2222 356.368 44.2563C356.261 44.2921 356.215 44.2862 356.211 44.29C356.2 44.2614 356.207 44.1753 356.227 44.1138C356.26 44.0131 356.206 43.9044 356.105 43.8709Z" fill="#F5F5F5"/>
<path d="M356.915 42.2181C356.956 42.2332 357 42.2403 357.043 42.2403C357.13 42.2403 357.215 42.2116 357.262 42.1601C357.332 42.0829 357.292 41.9835 357.171 41.9385C357.12 41.9195 357.127 41.8658 357.129 41.8552C357.136 41.8126 357.176 41.7607 357.245 41.7469C357.378 41.7204 357.453 41.6295 357.411 41.5441C357.37 41.4585 357.228 41.4112 357.094 41.4374C356.842 41.4877 356.658 41.6373 356.626 41.8183C356.596 41.9868 356.707 42.14 356.915 42.2181Z" fill="#F5F5F5"/>
<path d="M358.542 45.472C358.562 45.4778 358.582 45.4805 358.602 45.4805C358.728 45.4805 358.855 45.3694 358.981 45.149C359.044 45.0396 359.044 44.8622 358.981 44.7527C358.919 44.6432 358.817 44.6432 358.755 44.7527C358.659 44.9205 358.607 44.924 358.594 44.9188C358.563 44.9111 358.536 44.8413 358.529 44.8222C358.489 44.6858 358.394 44.6315 358.315 44.7001C358.236 44.7694 358.204 44.9377 358.244 45.0762C358.253 45.1109 358.346 45.4164 358.542 45.472Z" fill="#F5F5F5"/>
<path d="M361.825 44.0629C361.824 44.0585 361.823 44.0543 361.822 44.0505C361.786 43.905 361.673 43.8258 361.569 43.8754C361.463 43.9241 361.407 44.0828 361.442 44.2298C361.457 44.2955 361.547 44.625 361.768 44.6666C361.783 44.6693 361.797 44.6707 361.812 44.6707C361.951 44.6707 362.081 44.5451 362.2 44.2965C362.261 44.1679 362.236 43.9938 362.144 43.9079C362.052 43.8222 361.927 43.8567 361.866 43.9857C361.85 44.0188 361.837 44.044 361.825 44.0629Z" fill="#F5F5F5"/>
<path d="M361.357 46.921C361.357 46.1533 361.324 45.4332 361.278 44.8022C361.527 45.2454 361.751 45.6934 361.894 46.0842C361.921 46.1564 361.987 46.2009 362.058 46.2009C362.079 46.2009 362.1 46.1972 362.12 46.1895C362.211 46.1545 362.257 46.0508 362.223 45.9576C362.001 45.3502 361.602 44.6268 361.208 43.9846C361.112 43.0149 361.005 42.3994 361.003 42.3884C360.986 42.2905 360.895 42.2244 360.799 42.2435C360.704 42.2613 360.641 42.355 360.658 42.4527C360.659 42.4605 360.715 42.7776 360.781 43.3112C360.646 43.106 360.521 42.9208 360.416 42.7684L360.424 42.7712C360.517 42.8028 360.616 42.7517 360.646 42.6575C360.677 42.5631 360.627 42.4612 360.535 42.4299L360.009 42.2498C359.936 42.2245 359.856 42.2513 359.811 42.3153C359.799 42.3323 359.791 42.3511 359.786 42.3705C359.681 42.2908 359.546 42.226 359.42 42.2804C359.343 42.3129 359.252 42.3948 359.252 42.6006C359.252 42.7587 359.311 42.9295 359.373 43.1106C359.476 43.4108 359.541 43.6316 359.432 43.737C359.371 43.7951 359.311 43.8171 359.252 43.8018C359.144 43.7737 359.037 43.6258 358.965 43.4063C358.962 43.3968 358.956 43.3898 358.951 43.3813C358.988 43.1025 358.972 42.7665 358.898 42.3853C358.879 42.2878 358.787 42.2243 358.691 42.2441C358.596 42.2636 358.535 42.3584 358.554 42.456C358.668 43.0438 358.634 43.5234 358.462 43.7388C358.395 43.8221 358.312 43.8607 358.2 43.8607C358.164 43.8607 358.14 43.8492 358.116 43.8207C357.977 43.657 357.978 43.1289 358.023 42.8059C358.03 42.7545 358.015 42.7021 357.981 42.6626C357.948 42.6233 357.9 42.6006 357.849 42.6006C357.547 42.6006 357.433 42.9529 357.332 43.2637C357.287 43.4003 357.205 43.6543 357.147 43.6807C357.041 43.6807 356.973 43.3608 356.972 43.1405C356.972 43.0412 356.893 42.9608 356.797 42.9608C356.797 42.9608 356.796 42.9608 356.796 42.9608C356.699 42.9608 356.621 43.0414 356.621 43.1407C356.621 43.5559 356.759 44.0408 357.147 44.0408C357.437 44.0408 357.554 43.7174 357.652 43.4167C357.669 43.6557 357.721 43.9034 357.851 44.0564C357.942 44.164 358.062 44.2207 358.2 44.2207C358.416 44.2207 358.601 44.133 358.733 43.9671C358.757 43.9371 358.778 43.9025 358.798 43.8677C358.9 44.0164 359.025 44.1143 359.166 44.1508C359.207 44.1615 359.249 44.1669 359.29 44.1669C359.425 44.1669 359.557 44.1096 359.672 43.9994C359.695 43.9765 359.712 43.9514 359.73 43.9268C359.773 43.9393 359.817 43.9468 359.86 43.9468C360.002 43.9468 360.139 43.8881 360.224 43.8321C360.305 43.7787 360.328 43.6683 360.277 43.5846C360.225 43.5011 360.117 43.4761 360.035 43.5285C360.034 43.5293 359.917 43.5984 359.837 43.5822C359.837 43.3848 359.767 43.1753 359.704 42.9906C359.668 42.8855 359.631 42.7778 359.613 42.6897C359.628 42.7022 359.642 42.7152 359.654 42.7278C359.723 42.7981 359.834 42.7981 359.902 42.7278C359.914 42.7162 359.92 42.7021 359.928 42.6885C360.11 42.9455 360.484 43.4857 360.868 44.1083C360.942 44.8737 361.006 45.85 361.006 46.9209C361.006 47.0204 361.085 47.1009 361.181 47.1009C361.278 47.1009 361.357 47.0205 361.357 46.921Z" fill="#F5F5F5"/>
<path d="M361.699 43.5364C361.699 43.7155 361.818 43.8605 361.966 43.8605C362.114 43.8605 362.233 43.7155 362.233 43.5364C362.233 43.155 361.987 42.5389 361.938 42.4192C361.872 42.2594 361.711 42.1948 361.579 42.2743C361.447 42.3544 361.394 42.549 361.46 42.7091C361.556 42.943 361.699 43.3674 361.699 43.5364Z" fill="#F5F5F5"/>
<path d="M361.212 47.7483C361.016 47.6716 360.774 47.7324 360.674 47.8835C360.631 47.9478 360.564 48.0195 360.508 48.0656C360.49 47.9437 360.533 47.7 360.613 47.4981C360.667 47.3633 360.594 47.2177 360.436 47.1451C360.279 47.0723 360.077 47.0912 359.947 47.191L359.145 47.8046C358.988 47.9245 358.988 48.1186 359.145 48.2385C359.301 48.3583 359.555 48.3583 359.712 48.2385L359.732 48.2229C359.767 48.3461 359.833 48.4584 359.947 48.5454C360.097 48.6604 360.279 48.7213 360.468 48.7213C360.504 48.7213 360.541 48.7188 360.578 48.7144C361.032 48.6581 361.315 48.2748 361.391 48.1588C361.489 48.0074 361.409 47.8244 361.212 47.7483Z" fill="#F5F5F5"/>
<path d="M361.244 46.1761H359.917C359.929 46.123 359.941 46.0724 359.953 46.0243C360.482 45.8998 360.797 45.7064 360.89 45.4483C360.922 45.3588 360.955 45.1779 360.819 44.9699C360.696 44.7825 360.523 44.6984 360.343 44.74C360.075 44.8014 359.837 45.1278 359.665 45.6504C359.134 45.7535 358.794 45.9695 358.578 46.1828C358.502 45.3091 358.202 44.7901 358.188 44.7655C358.13 44.6674 358.013 44.6409 357.926 44.7063C357.84 44.7716 357.817 44.9039 357.874 45.0019C357.878 45.0077 358.219 45.5992 358.219 46.5891C358.219 47.5622 357.534 48.2946 357.089 48.2946C356.878 48.2946 356.785 48.0101 356.745 47.7695C357.18 47.4242 357.564 47.0246 357.649 46.6407C357.763 46.1212 357.619 45.7384 357.523 45.4851C357.519 45.4734 357.514 45.4609 357.509 45.448C357.513 45.4522 357.517 45.4565 357.521 45.4607C357.595 45.544 357.714 45.544 357.787 45.4607C357.861 45.3774 357.861 45.2425 357.787 45.1593C357.677 45.0345 357.464 44.8386 357.269 44.9306C357.187 44.9692 357.089 45.0661 357.089 45.3099C357.089 45.4201 357.13 45.5277 357.177 45.6526C357.262 45.8772 357.367 46.1568 357.283 46.5374C357.233 46.7626 356.989 47.0357 356.667 47.307C356.632 47.2602 356.582 47.2288 356.524 47.2288H356.524C356.42 47.229 356.336 47.3242 356.336 47.4418C356.336 47.4802 356.337 47.5212 356.34 47.5632C355.937 47.8587 355.48 48.1322 355.128 48.3137C355.033 48.3624 354.991 48.4888 355.035 48.596C355.066 48.6745 355.134 48.7209 355.206 48.7209C355.232 48.7209 355.259 48.7149 355.284 48.7018C355.39 48.6473 355.892 48.3822 356.409 48.02C356.504 48.3855 356.705 48.721 357.089 48.721C357.541 48.721 358.053 48.3028 358.349 47.6784C358.385 47.7498 358.426 47.8182 358.475 47.8819C358.949 48.5007 359.875 48.5078 359.914 48.5078C360.015 48.5078 360.099 48.417 360.102 48.3023C360.106 48.1875 360.029 48.0901 359.927 48.082C359.926 48.0818 359.776 48.0631 359.692 47.9527C359.642 47.886 359.622 47.7945 359.631 47.6727C359.65 47.41 360.399 47.2136 361.058 47.202C361.137 47.2006 361.207 47.1441 361.233 47.0603L361.421 46.4607C361.442 46.3955 361.433 46.3229 361.398 46.2665C361.363 46.2098 361.305 46.1761 361.244 46.1761ZM360.418 45.158C360.421 45.1572 360.426 45.156 360.432 45.156C360.45 45.156 360.478 45.1659 360.516 45.2238C360.523 45.2347 360.546 45.2717 360.541 45.288C360.519 45.3483 360.389 45.4481 360.118 45.5384C360.237 45.2752 360.354 45.1726 360.418 45.158ZM359.28 47.9605C359.089 47.8901 358.894 47.7785 358.759 47.6018C358.611 47.4076 358.556 47.1619 358.592 46.851C358.597 46.8347 358.61 46.8025 358.631 46.7607C358.896 46.7332 359.605 46.8515 359.654 47.0811C359.435 47.2074 359.274 47.385 359.256 47.6374C359.246 47.764 359.258 47.8712 359.28 47.9605Z" fill="#F5F5F5"/>
<path d="M362.848 43.0106L362.67 42.3834C362.641 42.2825 362.552 42.2223 362.463 42.2451C362.374 42.2674 362.314 42.3643 362.323 42.4703C362.446 43.9129 362.679 46.7261 362.679 47.0487C362.679 47.3384 362.24 47.9088 361.53 48.3251C361.442 48.3768 361.406 48.5023 361.45 48.6056C361.482 48.6789 361.544 48.7212 361.61 48.7212C361.637 48.7212 361.664 48.714 361.689 48.6991C362.338 48.3188 363.035 47.6402 363.035 47.0487C363.035 46.7398 362.853 44.5174 362.749 43.269C362.833 43.2267 362.877 43.1147 362.848 43.0106Z" fill="#F5F5F5"/>
<path d="M365.09 44.6253C365.116 44.6553 365.151 44.6709 365.187 44.6709C365.21 44.6709 365.233 44.6643 365.254 44.6505C365.307 44.6158 365.334 44.5446 365.319 44.4766C365.294 44.3671 365.286 44.2301 365.299 44.1741C365.368 44.1765 365.431 44.121 365.441 44.0405C365.452 43.9553 365.4 43.8763 365.325 43.8642C365.235 43.8502 365.156 43.8804 365.1 43.9507C365.065 43.9964 365.043 44.055 365.032 44.118L364.874 43.9375C364.82 43.8767 364.734 43.8767 364.681 43.9375C364.627 43.9984 364.627 44.097 364.681 44.1578L365.09 44.6253Z" fill="#F5F5F5"/>
<path d="M365.222 44.703L364.699 45.1674C364.636 45.2229 364.622 45.3309 364.667 45.4085C364.694 45.4555 364.737 45.4805 364.78 45.4805C364.808 45.4805 364.837 45.47 364.861 45.4481L365.384 44.9838C365.447 44.9283 365.461 44.8203 365.416 44.7427C365.371 44.6651 365.284 44.647 365.222 44.703Z" fill="#F5F5F5"/>
<path d="M366.164 47.5501C366.26 47.5501 366.338 47.4547 366.338 47.3366C366.338 47.0217 366.325 46.67 366.303 46.3042C366.476 46.6511 366.62 46.9709 366.712 47.2339C366.74 47.315 366.804 47.3633 366.872 47.3633C366.895 47.3633 366.918 47.3579 366.941 47.346C367.029 47.2995 367.07 47.174 367.032 47.0659C366.872 46.6097 366.574 46.0056 366.235 45.3819C366.166 44.5984 366.077 43.8306 366.007 43.2799C366.044 43.2845 366.083 43.2734 366.116 43.2467C366.171 43.2035 366.197 43.1285 366.193 43.0538C366.198 43.0748 366.203 43.0958 366.213 43.1152C366.214 43.1173 366.326 43.3438 366.276 43.6378C366.257 43.7531 366.317 43.8661 366.412 43.89C366.424 43.8929 366.436 43.8945 366.447 43.8945C366.528 43.8945 366.601 43.825 366.618 43.7242C366.696 43.2578 366.515 42.9009 366.507 42.8859C366.455 42.7867 366.347 42.7575 366.266 42.8205C366.211 42.8636 366.185 42.9387 366.188 43.0135C366.184 42.9924 366.179 42.9712 366.169 42.9519L365.874 42.3915C365.83 42.306 365.742 42.2714 365.664 42.3082C365.587 42.3453 365.542 42.4439 365.556 42.5439C365.559 42.5607 365.692 43.4975 365.81 44.6266C365.676 44.3955 365.543 44.1694 365.413 43.9538C365.392 43.6309 365.371 43.3323 365.353 43.0854C365.362 43.0819 365.372 43.0773 365.381 43.0716C365.467 43.0189 365.502 42.8906 365.459 42.7852L365.285 42.3583C365.247 42.2661 365.161 42.2202 365.08 42.2486C365 42.2774 364.947 42.3724 364.955 42.475C364.976 42.7297 364.998 43.0117 365.019 43.308C364.909 43.13 364.807 42.9671 364.719 42.8291C364.736 42.8112 364.751 42.7889 364.762 42.7626C364.805 42.6572 364.77 42.5289 364.684 42.4762L364.335 42.2627C364.262 42.2181 364.173 42.2415 364.122 42.3194C364.07 42.3974 364.07 42.5087 364.121 42.5871C364.131 42.6015 364.56 43.2603 365.073 44.1107C365.162 45.5211 365.221 46.9884 365.138 47.296C365.122 47.3523 365.096 47.4185 365.071 47.4209C364.965 47.4388 364.714 47.1503 364.587 46.8411C364.515 46.6631 364.41 46.6446 364.354 46.6476C364.167 46.6618 364.094 46.9143 363.961 47.3725C363.866 47.7009 363.747 48.1091 363.614 48.276C363.542 48.1683 363.449 47.807 363.398 47.4356C363.422 47.5177 363.485 47.5771 363.56 47.5771C363.656 47.5771 363.734 47.4816 363.734 47.3636C363.734 47.0452 363.553 44.6207 363.451 43.292C363.536 43.2503 363.58 43.1342 363.551 43.0266L363.377 42.3862C363.349 42.2832 363.263 42.2225 363.175 42.2448C363.089 42.2674 363.03 42.3659 363.038 42.474C363.156 43.9968 363.378 46.9383 363.385 47.3443C363.385 47.3406 363.384 47.3371 363.384 47.3334C363.37 47.2166 363.281 47.1366 363.187 47.1522C363.091 47.1691 363.025 47.2771 363.039 47.3938C363.09 47.8302 363.22 48.5804 363.519 48.7026C363.543 48.7124 363.575 48.7211 363.612 48.7211C363.681 48.7211 363.768 48.6913 363.858 48.5819C364.047 48.3494 364.176 47.9062 364.289 47.5153C364.315 47.4269 364.345 47.3223 364.374 47.2327C364.534 47.5187 364.813 47.8747 365.095 47.8469C365.195 47.8381 365.375 47.7727 365.468 47.4312C365.561 47.0906 365.525 45.903 365.462 44.766C365.609 45.018 365.756 45.2762 365.896 45.5311C365.951 46.1704 365.99 46.8108 365.99 47.3369C365.99 47.4546 366.068 47.5501 366.164 47.5501Z" fill="#F5F5F5"/>
<path d="M367.03 46.3631C366.963 45.2467 366.87 43.9536 366.811 43.1599C366.838 43.1746 366.867 43.1626 366.89 43.1223C366.932 43.0515 366.94 42.9186 366.908 42.8259L366.737 42.3234C366.711 42.2462 366.664 42.2189 366.625 42.258C366.585 42.297 366.562 42.3921 366.57 42.4881C366.571 42.5098 366.739 44.6813 366.843 46.4192C366.883 47.0833 366.825 47.6769 366.688 48.0065C366.6 48.2183 366.484 48.3141 366.342 48.2957C366.291 48.2895 366.246 48.377 366.243 48.4936C366.239 48.6101 366.279 48.7105 366.331 48.7179C366.347 48.7202 366.362 48.7212 366.378 48.7212C366.555 48.7212 366.71 48.575 366.826 48.2948C367.003 47.8673 367.078 47.1631 367.03 46.3631Z" fill="#F5F5F5"/>
<path d="M365.651 51.7595H365.454H364.27V51.4557C364.27 51.2878 364.181 51.1519 364.072 51.1519C363.963 51.1519 363.875 51.2878 363.875 51.4557V51.7595H353.414C353.809 52.367 354.598 52.6709 355.19 52.6709C355.615 52.6709 360.912 52.6709 363.875 52.6709V53.2784C363.875 53.4463 363.963 53.5822 364.072 53.5822H365.651C365.978 53.5822 366.243 53.1734 366.243 52.6708C366.243 52.1683 365.978 51.7595 365.651 51.7595ZM365.651 52.9746H364.27V52.6708C365.221 52.6708 365.848 52.6708 365.848 52.6708L365.813 52.5073C365.834 52.5551 365.848 52.6091 365.848 52.6708C365.848 52.8385 365.76 52.9746 365.651 52.9746Z" fill="#F5F5F5"/>
<rect x="1.5" y="1.5" width="399.659" height="67" rx="7.75817" stroke="#0F1933" stroke-width="3"/>
</svg>
