<svg width="22" height="14" viewBox="0 0 22 14" fill="none" xmlns="http://www.w3.org/2000/svg">
<g clip-path="url(#clip0_610_1469)">
<path d="M20.3524 -0.206909H1.64764C0.737645 -0.206909 0 0.530735 0 1.44073V4.59768H22V1.44073C22 0.530735 21.2624 -0.206909 20.3524 -0.206909Z" fill="#FF4B55"/>
<path d="M0 12.5592C0 13.4692 0.737645 14.2069 1.64764 14.2069H20.3524C21.2623 14.2069 22 13.4692 22 12.5592V9.40228H0V12.5592Z" fill="#464655"/>
<path d="M22 4.5976H0V9.40193H22V4.5976Z" fill="#F5F5F5"/>
<path d="M12.2111 6.25106C12.2111 6.06299 12.0268 5.93013 11.8484 5.98964L11.5131 6.1014L11.4316 5.60971C11.383 5.31636 11.1316 5.10345 10.8341 5.10345H10.5205L10.1925 5.50719H10.6268L10.5053 6.10755L10.1515 5.98964C9.97307 5.93013 9.78882 6.06299 9.78882 6.25106V8.29101L10.2771 7.80275L10.047 8.49287H9.78886V8.89661H12.2111V8.49287H11.953L11.7229 7.80275L12.2112 8.29101V6.25106H12.2111ZM10.7982 8.49283H10.4727L10.6965 7.89518L10.7982 8.02499V8.49283ZM11.2018 8.49283V8.02499L11.3035 7.89518L11.5272 8.49283H11.2018ZM11 7.76112C11 7.76112 10.3755 7.33847 10.4007 6.55C10.4007 6.55 10.7856 6.48692 11 6.14626C11.2144 6.48688 11.5993 6.55 11.5993 6.55C11.6245 7.33852 11 7.76112 11 7.76112Z" fill="#F0C727"/>
</g>
<defs>
<clipPath id="clip0_610_1469">
<rect width="22" height="14" fill="white"/>
</clipPath>
</defs>
</svg>
