<svg width="33" height="22" viewBox="0 0 33 22" fill="none" xmlns="http://www.w3.org/2000/svg">
<g clip-path="url(#clip0_869_17928)">
<path d="M29.7283 0.5H2.52144C1.19782 0.5 0.124878 1.57294 0.124878 2.89656V7.4885H32.1249V2.89656C32.1249 1.57294 31.0519 0.5 29.7283 0.5Z" fill="#FF4B55"/>
<path d="M0.124878 19.0687C0.124878 20.3923 1.19782 21.4653 2.52144 21.4653H29.7283C31.0519 21.4653 32.1249 20.3924 32.1249 19.0687V14.4768H0.124878V19.0687Z" fill="#464655"/>
<path d="M32.1249 7.48828H0.124878V14.4764H32.1249V7.48828Z" fill="#F5F5F5"/>
<path d="M17.8865 9.89337C17.8865 9.61981 17.6184 9.42656 17.3589 9.51312L16.8712 9.67568L16.7527 8.9605C16.6819 8.53381 16.3163 8.22412 15.8836 8.22412H15.4274L14.9503 8.81137H15.5821L15.4053 9.68462L14.8907 9.51312C14.6312 9.42656 14.3632 9.61981 14.3632 9.89337V12.8606L15.0733 12.1504L14.7387 13.1542H14.3632V13.7414H17.8865V13.1542H17.511L17.1764 12.1504L17.8866 12.8606V9.89337H17.8865ZM15.8313 13.1541H15.3579L15.6834 12.2848L15.8313 12.4736V13.1541ZM16.4184 13.1541V12.4736L16.5663 12.2848L16.8918 13.1541H16.4184ZM16.1248 12.0898C16.1248 12.0898 15.2165 11.4751 15.2532 10.3282C15.2532 10.3282 15.813 10.2364 16.1248 9.74093C16.4368 10.2364 16.9965 10.3282 16.9965 10.3282C17.0332 11.4751 16.1248 12.0898 16.1248 12.0898Z" fill="#F0C727"/>
</g>
<defs>
<clipPath id="clip0_869_17928">
<rect width="33" height="21" fill="white" transform="translate(0 0.5)"/>
</clipPath>
</defs>
</svg>
