<svg width="30" height="30" viewBox="0 0 30 30" fill="none" xmlns="http://www.w3.org/2000/svg">
<path d="M28.8674 12.3919L16.6307 12.3914C16.0903 12.3914 15.6523 12.8293 15.6523 13.3696V17.2787C15.6523 17.819 16.0903 18.257 16.6306 18.257H23.5216C22.767 20.2153 21.3587 21.8552 19.5618 22.8973L22.5001 27.9837C27.2135 25.2578 30.0001 20.4748 30.0001 15.1207C30.0001 14.3583 29.9439 13.8133 29.8316 13.1997C29.7461 12.7334 29.3414 12.3919 28.8674 12.3919Z" fill="#167EE6"/>
<path d="M14.9998 24.1304C11.6275 24.1304 8.68355 22.2878 7.1024 19.5613L2.01611 22.493C4.60449 26.979 9.45336 29.9999 14.9998 29.9999C17.7208 29.9999 20.2882 29.2673 22.4998 27.9906V27.9837L19.5615 22.8971C18.2175 23.6767 16.6622 24.1304 14.9998 24.1304Z" fill="#12B347"/>
<path d="M22.5 27.9905V27.9835L19.5617 22.897C18.2177 23.6764 16.6625 24.1302 15 24.1302V29.9998C17.7209 29.9998 20.2884 29.2672 22.5 27.9905Z" fill="#0F993E"/>
<path d="M5.86957 15.0001C5.86957 13.3379 6.3232 11.7827 7.10256 10.4388L2.01627 7.50708C0.732539 9.71179 0 12.2722 0 15.0001C0 17.728 0.732539 20.2884 2.01627 22.4931L7.10256 19.5615C6.3232 18.2175 5.86957 16.6624 5.86957 15.0001Z" fill="#FFD500"/>
<path d="M14.9998 5.86957C17.1989 5.86957 19.2189 6.65098 20.7966 7.95076C21.1859 8.27139 21.7516 8.24824 22.1081 7.8917L24.8779 5.12197C25.2824 4.71744 25.2536 4.05527 24.8214 3.68039C22.178 1.38709 18.7385 0 14.9998 0C9.45336 0 4.60449 3.02092 2.01611 7.50697L7.1024 10.4387C8.68355 7.71211 11.6275 5.86957 14.9998 5.86957Z" fill="#FF4B26"/>
<path d="M20.7968 7.95076C21.186 8.27139 21.7518 8.24824 22.1083 7.8917L24.878 5.12197C25.2825 4.71744 25.2537 4.05527 24.8216 3.68039C22.1781 1.38703 18.7387 0 15 0V5.86957C17.199 5.86957 19.219 6.65098 20.7968 7.95076Z" fill="#D93F21"/>
</svg>
