<svg width="96" height="96" viewBox="0 0 96 96" fill="none" xmlns="http://www.w3.org/2000/svg">
<g clip-path="url(#clip0_13_1988)">
<circle cx="47.9998" cy="51.8399" r="44.16" fill="#E3F4F3"/>
<path d="M68.2502 45.39H61.7302V25.39C61.7302 21.7114 60.2689 18.1836 57.6678 15.5824C55.0667 12.9813 51.5388 11.52 47.8602 11.52C44.1816 11.52 40.6538 12.9813 38.0526 15.5824C35.4515 18.1836 33.9902 21.7114 33.9902 25.39V45.39H27.4702V25.39C27.4702 19.9822 29.6184 14.796 33.4423 10.9721C37.2662 7.14822 42.4524 5 47.8602 5C53.268 5 58.4542 7.14822 62.2781 10.9721C66.102 14.796 68.2502 19.9822 68.2502 25.39V45.39Z" fill="#0F1933"/>
<g opacity="0.3">
<path d="M68.2502 45.39H61.7302V25.39C61.7302 21.7114 60.2689 18.1836 57.6678 15.5824C55.0667 12.9813 51.5388 11.52 47.8602 11.52C44.1816 11.52 40.6538 12.9813 38.0526 15.5824C35.4515 18.1836 33.9902 21.7114 33.9902 25.39V45.39H27.4702V25.39C27.4702 19.9822 29.6184 14.796 33.4423 10.9721C37.2662 7.14822 42.4524 5 47.8602 5C53.268 5 58.4542 7.14822 62.2781 10.9721C66.102 14.796 68.2502 19.9822 68.2502 25.39V45.39Z" fill="white"/>
</g>
<path d="M75.72 40.3001V73.0301C75.72 73.5291 75.6217 74.0233 75.4308 74.4843C75.2398 74.9453 74.9599 75.3642 74.607 75.7171C74.2541 76.07 73.8353 76.3499 73.3742 76.5408C72.9132 76.7318 72.419 76.8301 71.92 76.8301H23.78C23.2823 76.8288 22.7897 76.7295 22.3304 76.5378C21.8711 76.3461 21.454 76.0658 21.103 75.713C20.752 75.3601 20.4739 74.9416 20.2847 74.4812C20.0954 74.0209 19.9987 73.5278 20 73.0301V40.3001C19.9987 39.8024 20.0954 39.3093 20.2847 38.849C20.4739 38.3886 20.752 37.9701 21.103 37.6172C21.454 37.2644 21.8711 36.9841 22.3304 36.7924C22.7897 36.6007 23.2823 36.5014 23.78 36.5001H71.92C72.5497 36.4956 73.1697 36.6541 73.72 36.9601C74.3257 37.2822 74.8321 37.7634 75.1845 38.352C75.5369 38.9405 75.7221 39.6141 75.72 40.3001Z" fill="#46B8B0"/>
<path opacity="0.2" d="M73.72 36.9601V69.0301C73.72 69.5286 73.6216 70.0223 73.4306 70.4828C73.2395 70.9433 72.9594 71.3615 72.6064 71.7136C72.2534 72.0656 71.8344 72.3446 71.3735 72.5345C70.9125 72.7243 70.4186 72.8214 69.92 72.8201H21.78C21.1583 72.822 20.5461 72.6673 20 72.3701V40.3001C19.9987 39.8024 20.0954 39.3093 20.2847 38.849C20.4739 38.3886 20.752 37.9701 21.103 37.6172C21.454 37.2644 21.8711 36.9841 22.3304 36.7924C22.7897 36.6007 23.2823 36.5014 23.78 36.5001H71.92C72.5497 36.4956 73.1697 36.6541 73.72 36.9601Z" fill="white"/>
<path opacity="0.5" d="M55.0302 52.56C55.012 51.2549 54.6378 49.9795 53.9481 48.8714C53.2584 47.7633 52.2793 46.8645 51.1163 46.2719C49.9534 45.6792 48.6507 45.4153 47.3488 45.5086C46.0469 45.6018 44.7951 46.0486 43.7285 46.8009C42.6618 47.5532 41.8208 48.5823 41.296 49.7774C40.7712 50.9725 40.5826 52.2882 40.7505 53.5826C40.9184 54.877 41.4364 56.101 42.2488 57.1226C43.0611 58.1443 44.1369 58.9248 45.3602 59.38L45.0302 68.1H50.7602L49.9102 59.55C51.4008 59.0886 52.7033 58.1599 53.6253 56.9011C54.5473 55.6423 55.0399 54.1203 55.0302 52.56Z" fill="white"/>
</g>
<defs>
<clipPath id="clip0_13_1988">
<rect width="96" height="96" rx="48" fill="white"/>
</clipPath>
</defs>
</svg>
