<svg width="206" height="44" viewBox="0 0 206 44" fill="none" xmlns="http://www.w3.org/2000/svg">
    <g clip-path="url(#a)">
        <path d="M0 9.67v3.451h5.188v17.672h3.803V13.12h5.194v-3.45H0zM20.924 27.64a4.462 4.462 0 0 0 1.727-.3 4.425 4.425 0 0 0 1.473-.94c.423-.408.759-.895.988-1.433a4.336 4.336 0 0 0-.988-4.834 4.46 4.46 0 0 0-3.2-1.24c-2.692 0-4.607 1.994-4.607 4.375 0 2.381 1.915 4.372 4.607 4.372zm-.65-12.2c2.691 0 4.793 1.367 5.597 3.093l.214-2.796h3.613V30.79h-3.613l-.214-2.796c-.804 1.726-2.905 3.094-5.597 3.094-4.48 0-7.76-3.51-7.76-7.823 0-4.312 3.267-7.825 7.76-7.825zM39.072 27.64a4.462 4.462 0 0 0 1.726-.3 4.426 4.426 0 0 0 1.474-.94c.422-.408.758-.895.988-1.433a4.336 4.336 0 0 0-.988-4.834 4.46 4.46 0 0 0-3.2-1.24c-2.692 0-4.607 1.994-4.607 4.375 0 2.381 1.915 4.372 4.607 4.372zm-.65-12.2c2.688 0 4.79 1.367 5.597 3.093l.214-2.796h3.613V30.79h-3.613l-.214-2.796c-.807 1.726-2.909 3.094-5.598 3.094-4.483 0-7.76-3.51-7.76-7.823 0-4.312 3.277-7.825 7.76-7.825zM55.085 31.03h-.4c-.711.329-1.506 1.011-1.506 1.846 0 1.281 1.33 2.026 3.432 2.026s3.433-.626 3.433-1.877c0-1.49-1.855-1.994-4.947-1.994h-.012zm4.113-9.928c0-1.58-1.394-2.62-3.011-2.62-1.617 0-3.032 1.04-3.032 2.62 0 1.579 1.424 2.586 3.032 2.586s3.01-1.04 3.01-2.586zm4.544-2.113-1.485-.209c.365.72.556 1.515.557 2.322 0 3.301-2.876 5.662-6.624 5.662a7.403 7.403 0 0 1-2.195-.298.875.875 0 0 0-.434.685c0 .715 1.051.864 2.629.864 4.977 0 7.419 2.173 7.419 4.968 0 3.245-3.43 4.97-7.019 4.97s-7.016-1.725-7.016-4.97a3.43 3.43 0 0 1 .448-1.787c.31-.545.763-.996 1.31-1.306-.8-.537-1.357-1.249-1.357-2.086 0-1.1.927-1.905 1.855-2.352a5.309 5.309 0 0 1-1.661-1.903 5.247 5.247 0 0 1-.585-2.447c0-3.332 2.872-5.662 6.624-5.662a8.204 8.204 0 0 1 3.234.655l4.3-.357v3.25zM67.978 21.867h8.025c-.124-1.665-1.638-3.182-4.02-3.182-2.319 0-3.915 1.457-4.017 3.182h.012zm11.828 2.53H67.978c.094 1.845 1.545 3.451 4.297 3.451 1.981 0 3.246-1.01 3.866-2.053l3.336.358c-.463 2.053-2.905 4.938-7.226 4.938-4.818 0-8.07-3.508-8.07-7.912 0-4.196 3.09-7.748 7.829-7.748 4.818 0 7.829 3.689 7.829 8.004l-.033.962zM90.176 16.095l-.557 3.186a3.408 3.408 0 0 0-1.545-.388c-2.041 0-3.156 2.024-3.156 5.206v6.694h-3.797V15.738h3.584l.156 1.636c.988-1.16 2.132-1.934 3.433-1.934a2.727 2.727 0 0 1 1.885.652M88.999 29.216c-.011-.383.094-.761.301-1.085.207-.324.508-.58.863-.734a1.967 1.967 0 0 1 2.14.383 1.91 1.91 0 0 1 .447 2.107c-.145.356-.394.66-.716.875-.321.214-.7.328-1.087.329a1.932 1.932 0 0 1-1.37-.536A1.892 1.892 0 0 1 89 29.216M102.572 18.893c-2.318 0-4.637 1.756-4.637 4.375 0 2.62 2.319 4.372 4.637 4.372a5.665 5.665 0 0 0 2.155-.41 5.612 5.612 0 0 0 1.832-1.197v3.51c-1.048.895-2.592 1.55-4.604 1.55a7.949 7.949 0 0 1-5.591-2.291 7.785 7.785 0 0 1-2.316-5.534c0-2.076.833-4.066 2.316-5.534a7.949 7.949 0 0 1 5.591-2.292c2.012 0 3.556.656 4.604 1.547v3.48a5.585 5.585 0 0 0-1.834-1.182 5.634 5.634 0 0 0-2.153-.394M120.377 23.265a4.336 4.336 0 0 0-1.334-3.138 4.45 4.45 0 0 0-3.207-1.234c-2.692 0-4.607 1.994-4.607 4.372s1.915 4.375 4.607 4.375a4.452 4.452 0 0 0 1.731-.295 4.417 4.417 0 0 0 1.477-.94 4.37 4.37 0 0 0 .989-1.436c.229-.54.346-1.119.344-1.704zm-12.948 0c0-4.312 3.49-7.822 8.41-7.822s8.341 3.51 8.341 7.822-3.463 7.826-8.347 7.826c-4.884 0-8.41-3.51-8.41-7.826M149.907 21.334v9.462h-3.803v-8.204c0-2.2-.961-3.69-2.786-3.69-2.255 0-3.613 2.322-3.709 5.415v6.488h-3.8v-8.213c0-2.2-.961-3.69-2.786-3.69-2.255 0-3.613 2.322-3.736 5.415v6.488h-3.803V15.738h3.583l.187 2.112c1.361-1.4 3.122-2.41 5.224-2.41 2.288 0 3.833 1.129 4.574 2.944 1.454-1.663 3.372-2.944 5.751-2.944 3.339 0 5.119 2.44 5.119 5.891" fill="#0F1933"/>
        <path d="M183.778 31.794a60.75 60.75 0 0 1-8.41.75l-.96 10.89c-.018.232-.039.435-.051.551.538 0 1.076-.03 1.61-.092a14.17 14.17 0 0 0 4.607-1.192 15.805 15.805 0 0 0 4.731-3.37 15.4 15.4 0 0 0 3.171-4.84c.506-1.23.838-2.524.987-3.845a63.755 63.755 0 0 1-5.673 1.148" fill="#46B8B0"/>
        <path d="M205.988 17.901c-.145-2.032-1.656-4.694-8.031-5.85a37.13 37.13 0 0 0-6.564-.53 59.395 59.395 0 0 0-9.09.745 57.45 57.45 0 0 0-12.258 3.278l.795-2.018a1.721 1.721 0 0 0-.348-1.92 1.764 1.764 0 0 0-.574-.386 1.586 1.586 0 0 0-.56-.102c-.377.011-.743.133-1.049.352-.307.218-.54.522-.67.873l-2.554 6.458a1.72 1.72 0 0 0 .349 1.922c.163.166.358.297.573.387l6.022 2.227c.18.063.369.096.56.095.377-.011.743-.133 1.05-.35a1.88 1.88 0 0 0 .672-.872 1.719 1.719 0 0 0-.351-1.922 1.759 1.759 0 0 0-.573-.387l-1.765-.653a52.605 52.605 0 0 1 10.973-2.87 54.623 54.623 0 0 1 8.431-.703c7.055 0 10.783 1.725 10.864 2.87.027.375-.337.944-1.072 1.609a2.633 2.633 0 0 1 1.764 1.457 2.603 2.603 0 0 1-.048 2.274c2.954-2.304 3.565-4.443 3.457-5.984" fill="#0F1933"/>
        <path d="m200.547 21.152-6.173-1.788a1.697 1.697 0 0 0-.439-.06 1.734 1.734 0 0 0-.838.221 1.926 1.926 0 0 0-1.204 1.264 1.726 1.726 0 0 0 .074 1.343 1.748 1.748 0 0 0 1.019.892l1.879.539a51.724 51.724 0 0 1-11.529 3.081 54.643 54.643 0 0 1-8.431.704c-7.055 0-10.783-1.726-10.864-2.867-.034-.486.563-1.279 1.782-2.193a2.67 2.67 0 0 1-1.35-.957 2.62 2.62 0 0 1-.189-2.831c-3.712 2.542-4.462 4.94-4.341 6.622.144 2.032 1.653 4.693 8.027 5.852 2.168.368 4.365.545 6.564.528a59.081 59.081 0 0 0 9.091-.745 56.509 56.509 0 0 0 12.995-3.576l-.623 2.002a1.713 1.713 0 0 0 .073 1.344 1.762 1.762 0 0 0 1.02.89c.142.04.289.06.437.061.294-.003.583-.079.84-.22a1.942 1.942 0 0 0 1.204-1.264l2.063-6.625a1.727 1.727 0 0 0-1.09-2.235" fill="#0F1933"/>
        <path d="m190.972 13.562.235-2.658c0-.143 0-.283.027-.426.027-.143 0-.218 0-.325v-.578a10.094 10.094 0 0 0-.744-3.478C188.948 2.324 185.055.003 181.011 0h-15.579a.74.74 0 0 0-.484.192.722.722 0 0 0-.233.46l-1.09 12.257a.6.6 0 0 0 .155.459.605.605 0 0 0 .447.194h1.807l.635-1.61c.21-.546.58-1.017 1.063-1.354a2.986 2.986 0 0 1 1.647-.535 2.65 2.65 0 0 1 2.433 1.568c.267.61.318 1.29.145 1.931h1.758a3.062 3.062 0 0 1 2.297.979 2.995 2.995 0 0 1 .775 2.353l-.16 1.815-.672 7.59a55.602 55.602 0 0 0 7.227-.68 57.535 57.535 0 0 0 6.88-1.49l.271-3.063.603-6.854a.73.73 0 0 1 .692-.65h-.656z" fill="#46B8B0"/>
        <path d="M193.007.018a.944.944 0 0 0-.636.243.922.922 0 0 0-.3.606l-1.123 12.713h13.026a.745.745 0 0 0 .486-.193.73.73 0 0 0 .236-.463L205.78.674a.588.588 0 0 0-.357-.606.607.607 0 0 0-.245-.05h-12.171z" fill="#46B8B0"/>
    </g>
    <defs>
        <clipPath id="a">
            <path fill="#fff" d="M0 0h206v44H0z"/>
        </clipPath>
    </defs>
</svg>
