<svg width="22" height="21" viewBox="0 0 22 21" fill="none" xmlns="http://www.w3.org/2000/svg">
<path d="M11.3412 15.1322C10.0181 15.344 8.68172 15.4635 7.34178 15.4897L6.885 20.6722C6.87641 20.7829 6.86638 20.8793 6.86066 20.9346C7.11667 20.9349 7.37247 20.9202 7.62674 20.8907C8.38429 20.8264 9.12521 20.6345 9.81759 20.3233C10.6613 19.9312 11.4241 19.3873 12.0672 18.7192C12.7118 18.0523 13.2233 17.2708 13.575 16.4158C13.8158 15.8302 13.9738 15.2146 14.0447 14.5862C13.1755 14.8046 12.2719 14.9876 11.3469 15.1322" fill="#46B8B0"/>
<path d="M21.9009 8.52011C21.8322 7.55281 21.1134 6.28624 18.082 5.73593C17.0511 5.55945 16.0064 5.47496 14.9603 5.48347C13.5122 5.49065 12.0669 5.6092 10.6373 5.83805C8.64159 6.1414 6.68632 6.6647 4.80792 7.39821L5.18596 6.438C5.23124 6.3376 5.25582 6.22925 5.25824 6.1193C5.26067 6.00936 5.24089 5.90005 5.20007 5.79779C5.15925 5.69552 5.09822 5.60237 5.02055 5.52379C4.94288 5.44521 4.85014 5.3828 4.74778 5.34022C4.6627 5.30825 4.57244 5.29191 4.48144 5.29199C4.30192 5.29702 4.12805 5.35525 3.9823 5.45917C3.83654 5.56308 3.7256 5.70791 3.66381 5.87492L2.44952 8.94844C2.40441 9.04898 2.37997 9.1574 2.37763 9.26739C2.37528 9.37739 2.39509 9.48674 2.43588 9.58907C2.47667 9.6914 2.53763 9.78465 2.6152 9.86338C2.69278 9.94212 2.78541 10.0048 2.88769 10.0476L5.75156 11.1071C5.83702 11.1374 5.92715 11.1528 6.01791 11.1525C6.19736 11.1473 6.37115 11.0892 6.51706 10.9856C6.66297 10.882 6.77436 10.7377 6.83697 10.571C6.88184 10.4704 6.90606 10.3619 6.90821 10.2519C6.91036 10.1419 6.8904 10.0325 6.84949 9.93026C6.80858 9.82797 6.74754 9.73476 6.66992 9.65605C6.5923 9.57734 6.49965 9.51472 6.39737 9.47181L5.55826 9.16119C7.24224 8.51925 8.99192 8.06126 10.7762 7.79534C12.1018 7.58023 13.4424 7.46831 14.7856 7.46062C18.1407 7.46062 19.9134 8.28183 19.9521 8.82647C19.965 9.00518 19.7917 9.27608 19.4423 9.59237C19.6257 9.6383 19.7963 9.7245 19.9415 9.84456C20.0867 9.96463 20.2027 10.1155 20.2811 10.286C20.3595 10.4565 20.3981 10.6423 20.3942 10.8296C20.3903 11.0169 20.3439 11.201 20.2585 11.3681C21.6632 10.2717 21.9539 9.25339 21.9024 8.52011" fill="#0F1933"/>
<path d="M19.3148 10.0677L16.3793 9.21674C16.3112 9.19819 16.2409 9.18865 16.1703 9.18837C16.0307 9.18907 15.8936 9.2252 15.7722 9.29332C15.6358 9.34209 15.5129 9.42192 15.4134 9.52638C15.3139 9.63084 15.2406 9.75701 15.1994 9.8947C15.1622 9.9983 15.1461 10.1082 15.1522 10.218C15.1582 10.3278 15.1863 10.4353 15.2346 10.5343C15.283 10.6333 15.3507 10.7217 15.4339 10.7945C15.5171 10.8674 15.6141 10.9231 15.7192 10.9584L16.6127 11.2152C14.849 11.9138 13.0089 12.406 11.1299 12.6817C9.80426 12.8968 8.46369 13.0087 7.12044 13.0164C3.76542 13.0164 1.99268 12.1952 1.95402 11.652C1.93827 11.4208 2.22179 11.0435 2.80172 10.6081C2.54428 10.5279 2.31939 10.3684 2.15973 10.1528C2.00007 9.93731 1.91396 9.67696 1.91392 9.40963C1.91305 9.19833 1.96679 8.99033 2.07001 8.80542C0.304435 10.0153 -0.0521143 11.157 0.00516307 11.9569C0.0738959 12.9242 0.791291 14.1908 3.82269 14.7425C4.85366 14.9177 5.89831 15.0017 6.94431 14.9936C8.39243 14.9871 9.83783 14.8685 11.2673 14.639C13.389 14.3201 15.4641 13.7486 17.4475 12.937L17.1511 13.8901C17.1137 13.9937 17.0975 14.1036 17.1035 14.2135C17.1094 14.3234 17.1374 14.4309 17.1858 14.53C17.2342 14.629 17.302 14.7175 17.3853 14.7903C17.4686 14.8631 17.5657 14.9187 17.6709 14.9539C17.7386 14.9722 17.8084 14.9818 17.8786 14.9822C18.0185 14.9809 18.1558 14.9448 18.2781 14.8773C18.4144 14.8285 18.5373 14.7487 18.6368 14.6442C18.7363 14.5398 18.8096 14.4136 18.8508 14.2759L19.8317 11.123C19.8696 11.0195 19.8861 10.9096 19.8805 10.7997C19.8748 10.6898 19.847 10.5821 19.7987 10.483C19.7504 10.3839 19.6826 10.2953 19.5992 10.2225C19.5159 10.1498 19.4187 10.0942 19.3133 10.0592" fill="#0F1933"/>
<path d="M14.7615 6.45481L14.8732 5.18966C14.8732 5.12158 14.8732 5.05492 14.8861 4.98684C14.899 4.91876 14.8861 4.8833 14.8861 4.83224C14.8861 4.74005 14.8861 4.64786 14.8861 4.55709C14.8672 3.98907 14.7475 3.42878 14.5324 2.9019C13.7992 1.10629 11.9478 0.00141833 10.0247 0H2.61583C2.53053 0.00163484 2.44878 0.0341236 2.38601 0.0913421C2.32323 0.148561 2.28375 0.226555 2.27503 0.310614L1.75667 6.1442C1.75286 6.18365 1.75745 6.22345 1.77013 6.26104C1.78281 6.29863 1.8033 6.33317 1.83028 6.36243C1.85726 6.3917 1.89014 6.41504 1.92679 6.43095C1.96343 6.44686 2.00304 6.45499 2.04305 6.45481H2.90222L3.20435 5.68891C3.30421 5.42886 3.48026 5.20431 3.70989 5.04408C3.93953 4.88386 4.21226 4.79527 4.49309 4.78969C4.64358 4.78999 4.79285 4.81639 4.93413 4.8677C5.09256 4.92589 5.23757 5.015 5.36056 5.12976C5.48355 5.24451 5.58201 5.38257 5.6501 5.53573C5.7772 5.8256 5.80142 6.14956 5.71883 6.45481H6.55509C6.76009 6.45118 6.96352 6.49084 7.15184 6.57117C7.34015 6.6515 7.50902 6.77064 7.64721 6.92067C7.7854 7.0707 7.88974 7.24817 7.95327 7.44126C8.0168 7.63435 8.03807 7.83863 8.01566 8.0405L7.93977 8.90426L7.62045 12.5167C8.77193 12.484 9.91998 12.3759 11.0571 12.1934C12.1615 12.024 13.2542 11.7871 14.3291 11.4842L14.4579 10.0262L14.7443 6.76401C14.7534 6.68218 14.7914 6.60619 14.8517 6.54956C14.9121 6.49294 14.9907 6.45936 15.0737 6.45481H14.7615Z" fill="#46B8B0"/>
<path d="M15.728 0.00879263C15.6161 0.00840456 15.5081 0.0497839 15.4255 0.12469C15.343 0.199596 15.292 0.302535 15.2826 0.413017L14.7485 6.46361H20.9431C21.0289 6.46201 21.1112 6.42941 21.1745 6.37196C21.2378 6.3145 21.2777 6.23613 21.2868 6.15157L21.8023 0.320827C21.8063 0.281262 21.8018 0.2413 21.7893 0.20354C21.7767 0.16578 21.7562 0.131064 21.7292 0.101641C21.7022 0.0722181 21.6693 0.0487457 21.6325 0.0327503C21.5958 0.0167549 21.556 0.00859326 21.5159 0.00879263H15.728Z" fill="#46B8B0"/>
</svg>
