<svg width="15" height="11" viewBox="0 0 15 11" fill="none" xmlns="http://www.w3.org/2000/svg">
<path d="M5.50003 10.5C5.2423 10.4886 4.9897 10.424 4.75806 10.3105C4.52641 10.1969 4.32069 10.0367 4.15377 9.84004L1.05128 6.19004C0.836753 5.93752 0.73126 5.61017 0.757981 5.27992C0.784701 4.94966 0.941448 4.64353 1.19378 4.42879C1.31892 4.32245 1.46379 4.24181 1.62011 4.19148C1.77643 4.14115 1.94113 4.12211 2.10481 4.13546C2.26849 4.14881 2.42793 4.19429 2.57403 4.26928C2.72013 4.34427 2.85002 4.44732 2.95628 4.57254L5.62003 7.70504L12.37 0.955036C12.4853 0.835648 12.6233 0.74042 12.7758 0.674909C12.9283 0.609398 13.0923 0.574915 13.2583 0.573472C13.4242 0.57203 13.5888 0.603657 13.7425 0.666508C13.8961 0.729359 14.0357 0.822176 14.153 0.939542C14.2704 1.05691 14.3632 1.19647 14.4261 1.35009C14.4889 1.50371 14.5205 1.66831 14.5191 1.83429C14.5176 2.00026 14.4832 2.16429 14.4177 2.31679C14.3521 2.4693 14.2569 2.60723 14.1375 2.72254L6.90878 9.95129C6.55633 10.3021 6.07977 10.4997 5.58253 10.5013L5.50003 10.5Z" fill="white"/>
</svg>
